<?xml version="1.0" standalone="no"?>
<!DOCTYPE svg PUBLIC "-//W3C//DTD SVG 20010904//EN"
 "http://www.w3.org/TR/2001/REC-SVG-20010904/DTD/svg10.dtd">
<svg version="1.0" xmlns="http://www.w3.org/2000/svg"
 width="600.000000pt" height="600.000000pt" viewBox="0 0 600.000000 600.000000"
 preserveAspectRatio="xMidYMid meet">
<metadata>
Created by potrace 1.11, written by Peter Selinger 2001-2013
</metadata>
<g transform="translate(0.000000,600.000000) scale(0.100000,-0.100000)"
fill="#000000" stroke="none">
<path d="M2977 5673 c-4 -3 -7 -28 -7 -53 0 -30 -6 -52 -15 -60 -11 -9 -66
-12 -205 -11 -125 1 -197 -2 -211 -9 -23 -13 -49 -67 -49 -104 0 -17 -9 -32
-26 -43 l-27 -17 -39 47 c-36 42 -44 47 -82 47 -59 0 -79 -23 -70 -79 5 -32 3
-46 -11 -61 -26 -28 -39 -25 -73 17 -26 33 -34 37 -68 35 -47 -4 -74 -26 -74
-63 0 -19 -8 -34 -25 -45 -23 -15 -27 -15 -60 6 -30 19 -41 21 -61 11 -23 -10
-24 -16 -24 -92 0 -66 -4 -86 -21 -110 l-21 -29 -119 6 c-107 6 -121 5 -139
-11 -13 -12 -20 -31 -20 -54 0 -31 11 -47 80 -120 l80 -84 -52 -56 c-29 -31
-56 -59 -61 -62 -5 -4 -94 -7 -198 -7 -116 -1 -197 -6 -209 -12 -33 -18 -40
-53 -40 -206 0 -131 -2 -146 -20 -164 -11 -11 -24 -20 -28 -20 -4 0 -26 18
-47 40 -31 32 -46 40 -75 40 -30 0 -43 -9 -93 -60 -43 -45 -57 -67 -57 -89 0
-19 -8 -35 -22 -45 -20 -14 -24 -14 -43 -1 -11 8 -31 20 -45 26 -14 5 -39 24
-56 41 -19 17 -40 28 -50 26 -17 -3 -19 -18 -24 -175 -5 -188 -8 -197 -63
-198 -17 -1 -55 -2 -84 -3 -94 -3 -124 -74 -59 -135 18 -18 42 -52 53 -77 11
-25 27 -51 36 -59 40 -32 8 -94 -38 -73 -13 6 -47 14 -75 18 -63 8 -90 -11
-90 -64 0 -27 9 -45 40 -78 40 -43 40 -44 40 -122 0 -104 8 -112 117 -112 65
0 83 -3 96 -18 23 -25 21 -37 -9 -61 -21 -16 -41 -21 -92 -21 -62 0 -67 -2
-108 -40 -37 -34 -50 -40 -87 -40 -54 0 -77 -22 -77 -73 0 -53 26 -67 126 -67
67 0 84 -3 98 -19 25 -28 14 -48 -64 -116 -101 -87 -96 -101 43 -112 63 -5 85
-11 107 -30 35 -29 48 -29 79 1 21 20 41 26 103 32 89 8 123 1 138 -26 9 -16
-6 -35 -110 -141 -77 -78 -120 -129 -120 -143 0 -11 -18 -50 -40 -86 -43 -71
-50 -111 -24 -149 14 -20 23 -23 60 -18 38 4 48 1 78 -27 63 -57 156 -165 156
-181 0 -8 -16 -32 -35 -54 -20 -22 -35 -49 -35 -63 0 -35 39 -68 81 -68 25 0
43 -8 59 -25 l23 -25 -23 -25 c-18 -19 -34 -25 -65 -25 -28 0 -47 -6 -58 -18
-48 -53 13 -106 148 -127 29 -5 55 -20 94 -56 l54 -49 4 -118 c4 -139 7 -157
30 -168 10 -4 91 -8 181 -8 150 -1 165 -3 178 -20 21 -29 18 -38 -26 -81 -39
-38 -40 -40 -40 -110 0 -86 14 -105 79 -105 35 0 48 -5 69 -30 33 -38 51 -38
87 0 34 36 35 36 63 10 19 -18 22 -31 22 -98 0 -111 10 -122 108 -122 l77 0
82 82 82 82 26 -24 c23 -21 25 -31 25 -105 0 -107 8 -115 117 -115 l81 0 53
62 c74 84 88 98 98 98 5 0 35 -26 67 -58 53 -51 59 -62 64 -107 6 -63 28 -70
74 -26 l32 31 111 -1 c61 -1 116 2 122 5 19 12 12 45 -14 68 -21 18 -25 31
-25 75 0 69 22 93 84 93 50 0 85 -23 122 -81 30 -48 30 -50 -1 -99 -45 -72
-25 -140 42 -140 31 0 44 8 95 62 104 112 134 142 201 201 l66 58 21 -21 c16
-16 20 -33 21 -92 0 -93 8 -216 14 -245 10 -42 41 -25 129 70 71 76 86 98 86
124 0 25 12 46 52 90 68 77 75 80 104 52 22 -20 24 -31 24 -104 0 -94 13 -115
72 -115 54 0 68 23 68 111 0 113 43 155 90 89 23 -33 64 -41 74 -14 3 9 6 51
6 93 0 63 4 81 18 94 10 10 21 17 24 17 3 0 41 -34 84 -75 l79 -75 111 0 c103
0 112 2 132 23 15 15 22 36 22 61 0 31 7 44 40 73 37 34 40 40 40 89 0 66 -10
93 -49 130 -28 26 -31 35 -31 86 0 112 27 137 119 113 32 -8 83 -15 112 -15
51 1 57 4 114 55 l60 54 -50 46 c-27 25 -62 52 -77 60 -38 21 -47 43 -38 98
11 76 22 81 164 87 165 7 160 2 151 153 -7 114 -6 120 16 143 18 19 32 24 75
24 45 0 59 -5 87 -30 65 -57 72 -43 68 140 l-3 145 -33 40 c-18 23 -37 57 -43
77 -5 20 -26 58 -46 84 -38 50 -44 79 -23 109 11 14 21 16 43 11 80 -19 127
-25 215 -25 83 -1 98 2 114 19 24 27 15 67 -30 125 -34 45 -35 50 -35 130 0
104 14 126 86 134 73 9 70 29 -16 116 l-73 73 26 26 c19 19 36 26 65 26 63 0
72 18 72 146 0 145 -6 154 -101 154 -71 0 -122 17 -132 44 -3 8 25 45 74 94
67 69 79 86 79 115 0 45 -26 67 -78 67 -30 0 -48 6 -63 21 -20 20 -21 29 -16
100 5 71 3 79 -17 98 -14 14 -36 21 -60 21 -84 0 -101 35 -45 95 35 38 40 49
37 82 -4 48 -32 55 -74 20 -39 -33 -107 -44 -139 -23 -23 15 -25 22 -25 101
l0 85 -57 60 c-53 55 -61 60 -100 60 -60 0 -83 25 -83 91 0 46 3 53 40 86 33
30 40 43 40 74 0 45 -27 69 -76 69 -23 0 -39 -10 -67 -40 -31 -35 -41 -40 -80
-40 -34 0 -49 6 -68 26 -22 23 -24 33 -21 104 l2 77 -54 47 c-30 25 -60 46
-68 46 -7 0 -25 -13 -40 -30 -31 -35 -41 -37 -68 -10 -13 13 -20 33 -20 59 0
47 -23 77 -67 86 -29 6 -37 2 -76 -41 l-44 -47 -59 53 c-32 30 -63 59 -67 67
-10 16 3 40 42 77 56 53 34 126 -38 126 -24 0 -48 -12 -83 -40 -37 -29 -60
-40 -84 -40 -25 0 -44 -10 -72 -34 -50 -46 -120 -58 -151 -27 -19 19 -21 32
-21 140 0 66 -3 126 -6 135 -9 23 -30 20 -65 -11 -51 -46 -112 -55 -147 -23
-19 18 -22 31 -22 100 0 92 -17 120 -72 120 -25 0 -43 -12 -90 -59 l-58 -60 0
-80 c0 -69 -3 -83 -21 -100 -38 -35 -79 7 -79 80 0 24 -21 50 -122 149 -114
113 -149 136 -171 113z m73 -78 c14 -19 14 -19 -2 -6 -10 7 -18 18 -18 24 0 6
1 8 3 6 1 -2 9 -13 17 -24z m226 -319 c-5 -15 -26 40 -25 67 0 15 5 10 15 -17
8 -22 13 -45 10 -50z m-686 31 c0 -5 -4 -5 -10 -2 -5 3 -10 14 -10 23 0 15 2
15 10 2 5 -8 10 -19 10 -23z m771 -97 c-28 -22 -60 -58 -71 -79 -11 -22 -24
-42 -30 -46 -5 -3 -10 -14 -10 -24 0 -10 -9 -26 -20 -36 -11 -10 -20 -26 -20
-35 0 -10 -7 -34 -15 -55 -9 -20 -13 -46 -9 -57 4 -14 2 -18 -5 -14 -6 4 -11
0 -11 -8 0 -9 -4 -16 -10 -16 -15 0 -12 -39 4 -56 19 -18 2 -76 -19 -68 -18 7
-27 -10 -30 -59 -2 -23 -5 -61 -7 -85 -3 -43 8 -60 14 -20 6 43 26 31 26 -17
-1 -51 5 -63 25 -47 8 7 17 9 20 5 4 -3 7 4 6 18 0 13 4 44 9 69 6 25 16 90
23 145 6 55 16 107 20 115 4 8 14 30 21 48 7 17 16 32 20 32 13 0 9 48 -4 54
-10 3 -8 9 5 19 9 8 17 17 17 21 0 13 79 140 105 171 l27 30 -22 -35 c-26 -42
-54 -104 -74 -162 -21 -64 -56 -319 -55 -401 1 -40 4 -60 6 -44 2 15 13 32 25
38 25 14 35 4 17 -17 -23 -28 -40 -59 -60 -114 -5 -14 -23 -40 -39 -59 -17
-19 -28 -37 -24 -40 3 -3 11 2 18 11 7 10 25 22 40 28 15 5 35 23 44 40 9 16
20 30 25 30 4 0 5 11 1 25 -8 31 3 78 16 70 5 -3 8 0 5 7 -2 7 4 38 15 68 l19
55 -1 -72 c-1 -40 -6 -73 -10 -73 -4 0 -8 -4 -8 -10 0 -5 5 -10 10 -10 18 0
46 33 70 83 35 70 66 94 74 55 2 -7 7 -21 11 -32 4 -10 3 -39 -3 -64 -7 -33
-7 -49 0 -53 6 -4 7 -12 4 -18 -12 -18 32 -13 51 7 10 10 26 24 35 31 16 12
17 11 2 -18 -19 -39 -8 -61 14 -29 9 13 16 26 14 31 -1 4 6 7 15 7 15 0 16 2
3 10 -14 9 -7 15 14 11 5 -1 13 4 17 11 6 9 9 7 9 -7 0 -11 -7 -31 -16 -43 -8
-12 -11 -22 -5 -22 5 0 13 5 16 10 4 6 10 8 15 5 14 -9 0 -77 -22 -108 -11
-16 -22 -40 -24 -54 -3 -15 -7 -30 -10 -35 -8 -13 5 -9 57 17 l49 24 -6 -27
c-3 -15 -8 -33 -10 -40 -2 -7 3 -27 11 -43 17 -32 11 -59 -8 -40 -6 6 -21 11
-34 11 -22 0 -28 -13 -23 -49 1 -7 -1 -25 -5 -38 -5 -21 -8 -23 -21 -12 -8 7
-13 18 -10 26 3 7 -1 13 -9 13 -8 0 -19 9 -25 20 -6 11 -15 18 -19 15 -5 -2
-11 4 -14 15 -7 26 -23 26 -30 0 -3 -11 -11 -20 -17 -20 -7 0 -10 7 -6 15 3 8
0 14 -7 12 -7 -1 -11 4 -9 11 4 22 -18 52 -38 52 -25 0 -26 -15 -2 -37 16 -17
16 -19 -6 -42 -13 -14 -20 -31 -17 -40 15 -39 16 -69 3 -82 -8 -8 -20 -23 -26
-34 -10 -17 -11 -10 -8 38 2 31 -1 57 -5 57 -15 0 -10 16 11 40 23 27 25 46 6
57 -18 11 -29 50 -16 58 5 3 15 15 20 25 8 16 7 18 -4 14 -10 -4 -13 0 -10 14
4 11 0 19 -8 19 -7 0 -29 4 -49 8 -23 4 -39 3 -43 -4 -4 -6 -16 -11 -27 -11
-12 0 -19 -5 -16 -12 4 -12 27 -14 71 -6 26 4 40 -23 32 -65 -5 -28 -12 -37
-26 -37 -13 0 -20 -7 -20 -19 0 -16 -37 -37 -48 -27 -5 6 42 52 61 59 22 8 23
62 2 71 -8 3 -15 2 -15 -3 0 -13 -37 -20 -47 -10 -14 14 -38 1 -53 -27 -14
-24 -30 -32 -30 -14 0 6 -8 10 -17 10 -17 -1 -17 -1 0 -14 25 -19 11 -46 -24
-46 -16 0 -29 -4 -29 -9 0 -12 29 -23 42 -15 6 4 2 -5 -7 -19 -12 -20 -15 -37
-10 -67 6 -35 9 -39 26 -30 10 6 19 7 19 2 0 -14 -24 -39 -44 -46 -16 -6 -18
-2 -11 30 4 24 3 34 -4 29 -6 -3 -11 -19 -11 -35 0 -16 -4 -32 -10 -35 -5 -3
-10 -15 -10 -26 0 -17 3 -18 21 -9 11 7 27 9 34 6 9 -3 18 9 28 37 10 30 20
43 36 45 19 3 21 8 15 36 -5 30 -3 34 25 44 22 8 31 7 35 -1 3 -8 7 -9 13 -2
13 16 33 16 33 1 0 -18 -35 -31 -72 -27 -30 3 -31 1 -22 -22 3 -10 14 -14 30
-11 13 2 24 1 24 -3 -1 -20 -19 -32 -55 -36 -36 -4 -41 -9 -36 -36 0 -4 12 -6
26 -3 25 4 30 -3 19 -32 -8 -20 -44 -21 -44 -1 0 13 -3 13 -20 3 -27 -17 -25
-37 4 -48 32 -12 39 -25 21 -40 -8 -7 -15 -21 -15 -31 0 -23 1 -23 -40 -3 -23
12 -28 19 -19 25 7 4 19 3 26 -3 9 -7 15 -6 20 7 8 23 -25 48 -54 40 -17 -4
-23 -1 -23 10 0 9 -7 18 -15 21 -17 7 -20 40 -5 49 15 9 12 35 -5 35 -8 0 -18
-12 -21 -27 -4 -16 -11 -33 -15 -39 -5 -6 -4 -24 2 -42 8 -22 7 -36 -1 -52 -9
-17 -8 -26 4 -45 12 -18 12 -25 3 -28 -9 -3 -9 -9 2 -29 10 -20 10 -30 1 -47
-8 -16 -8 -26 0 -35 8 -10 7 -15 -4 -19 -8 -3 -17 -3 -20 0 -12 12 -6 51 9 57
21 8 19 30 -5 51 -13 12 -17 22 -11 28 7 7 6 17 0 30 -8 14 -7 26 2 44 12 22
11 26 -4 34 -15 9 -16 13 -2 46 19 45 19 50 -3 62 -13 7 -27 6 -45 -4 -15 -8
-27 -10 -27 -4 0 5 5 9 10 9 6 0 10 13 10 28 0 15 5 33 11 39 14 14 3 33 -18
33 -11 0 -14 -6 -9 -26 8 -31 -13 -29 -29 2 -19 37 -51 65 -68 58 -12 -4 -17
-1 -17 10 0 19 -21 21 -38 4 -9 -9 -12 -9 -12 0 0 7 -4 12 -10 12 -5 0 -10 -9
-10 -21 0 -11 4 -18 9 -14 9 5 24 -25 19 -41 -1 -5 6 -26 15 -48 22 -51 21
-63 -3 -41 -11 10 -17 22 -14 27 3 5 0 15 -6 23 -7 8 -10 21 -7 29 8 21 -24
30 -41 12 -12 -12 -13 -18 -3 -29 6 -8 9 -22 5 -31 -4 -10 0 -18 10 -22 9 -3
13 -10 10 -16 -12 -19 -53 35 -60 78 -3 24 -10 44 -15 44 -5 0 -9 9 -9 19 0
10 -7 21 -15 25 -17 6 -21 -9 -4 -19 6 -4 8 -13 5 -20 -2 -7 1 -18 7 -24 8 -8
6 -11 -7 -11 -13 0 -17 -6 -14 -18 5 -18 -19 -42 -42 -42 -13 0 0 32 18 46 13
9 12 13 -4 25 -10 8 -20 23 -22 34 -5 34 -12 46 -21 40 -6 -3 -8 -12 -4 -20 6
-16 -14 -20 -35 -7 -9 7 -8 13 8 27 11 10 20 24 20 32 0 7 5 13 10 13 6 0 10
5 10 10 0 6 -7 10 -15 10 -8 0 -15 -4 -15 -8 0 -5 -11 -14 -25 -20 -32 -15
-35 -15 -35 -2 0 6 7 10 15 10 10 0 15 10 15 30 0 17 -4 30 -10 30 -5 0 -10
-7 -10 -15 0 -8 -7 -15 -16 -15 -11 0 -15 -6 -11 -20 3 -12 0 -20 -8 -20 -8 0
-11 7 -8 19 3 13 -2 20 -17 24 -13 3 -19 10 -15 17 5 8 11 8 20 0 9 -7 16 -6
24 3 17 21 4 26 -35 14 -23 -7 -34 -16 -34 -30 0 -11 -5 -17 -12 -14 -13 4
-13 11 -1 70 6 31 -1 34 -25 10 -12 -11 -13 -18 -5 -20 10 -4 10 -9 0 -24 -21
-33 -29 -21 -22 34 9 73 15 88 28 81 7 -4 0 6 -15 23 -16 17 -28 40 -28 56 0
38 12 33 32 -13 9 -22 22 -40 29 -40 8 0 5 7 -6 20 -10 11 -15 20 -10 20 4 0
0 11 -9 25 -9 13 -16 31 -16 39 0 8 -6 19 -14 23 -14 9 -40 53 -31 53 12 0 61
-63 91 -118 17 -31 36 -58 43 -60 17 -6 13 15 -4 22 -8 3 -15 15 -15 26 0 11
-4 20 -10 20 -18 0 -10 18 10 23 11 3 18 1 14 -4 -3 -5 11 -30 30 -55 19 -25
43 -63 53 -84 11 -24 24 -38 36 -37 24 2 21 22 -5 35 -13 6 -17 11 -10 11 19
1 14 19 -8 26 -11 3 -20 12 -20 19 0 7 -11 30 -25 51 -15 20 -25 39 -23 41 5
5 108 -124 108 -135 0 -19 22 -12 27 9 3 11 11 20 18 20 7 0 15 20 19 48 3 27
13 57 21 68 8 10 15 29 15 41 0 28 10 53 21 53 5 0 9 -7 9 -15 0 -8 8 -15 19
-15 14 0 20 10 25 38 8 50 44 71 70 41 9 -11 19 -33 22 -49 9 -42 64 -50 64
-9 0 27 42 110 55 106 5 -2 11 -10 12 -18 1 -8 5 -35 8 -62 7 -54 19 -53 42 4
8 21 19 39 23 39 4 0 15 26 24 58 43 143 102 287 140 336 30 41 141 136 157
136 6 0 -12 -18 -40 -40z m-131 -10 c0 -5 -5 -10 -11 -10 -5 0 -7 5 -4 10 3 6
8 10 11 10 2 0 4 -4 4 -10z m-71 -42 c0 -13 -3 -17 -6 -10 -2 6 -12 12 -21 12
-15 0 -15 2 -2 10 23 15 30 12 29 -12z m-599 2 c0 -5 -4 -10 -10 -10 -5 0 -10
5 -10 10 0 6 5 10 10 10 6 0 10 -4 10 -10z m1075 -10 c3 -5 -1 -10 -10 -10 -9
0 -13 5 -10 10 3 6 8 10 10 10 2 0 7 -4 10 -10z m-1587 -69 c3 -8 -1 -12 -9
-9 -7 2 -15 10 -17 17 -3 8 1 12 9 9 7 -2 15 -10 17 -17z m513 -54 c-13 -13
-26 -3 -16 12 3 6 11 8 17 5 6 -4 6 -10 -1 -17z m-461 -27 c0 -5 -4 -10 -10
-10 -5 0 -10 5 -10 10 0 6 5 10 10 10 6 0 10 -4 10 -10z m460 -100 c0 -5 -4
-10 -10 -10 -5 0 -10 5 -10 10 0 6 5 10 10 10 6 0 10 -4 10 -10z m1220 0 c0
-5 -2 -10 -4 -10 -3 0 -8 5 -11 10 -3 6 -1 10 4 10 6 0 11 -4 11 -10z m-885
-10 c3 -5 -1 -10 -9 -10 -9 0 -16 5 -16 10 0 6 4 10 9 10 6 0 13 -4 16 -10z
m1345 6 c0 -11 -19 -15 -25 -6 -3 5 1 10 9 10 9 0 16 -2 16 -4z m-1880 -16 c0
-5 -7 -10 -16 -10 -8 0 -12 5 -9 10 3 6 10 10 16 10 5 0 9 -4 9 -10z m1750
-20 c0 -5 -4 -10 -10 -10 -5 0 -10 5 -10 10 0 6 5 10 10 10 6 0 10 -4 10 -10z
m-2120 -81 c0 -5 -9 -9 -20 -9 -22 0 -27 16 -7 23 15 5 27 -1 27 -14z m934
-17 c-8 -7 -23 -10 -39 -6 -38 9 -30 22 13 20 32 0 37 -3 26 -14z m966 -12 c0
-5 -4 -10 -10 -10 -5 0 -10 5 -10 10 0 6 5 10 10 10 6 0 10 -4 10 -10z m-1773
-15 c3 -9 3 -19 -1 -22 -8 -9 -37 18 -30 28 8 14 24 11 31 -6z m131 -63 c2 -7
-3 -12 -12 -12 -9 0 -16 7 -16 16 0 17 22 14 28 -4z m312 8 c0 -5 -4 -10 -10
-10 -5 0 -10 5 -10 10 0 6 5 10 10 10 6 0 10 -4 10 -10z m1483 -5 c-3 -9 -8
-14 -10 -11 -3 3 -2 9 2 15 9 16 15 13 8 -4z m-1406 -47 c-3 -8 -6 -5 -6 6 -1
11 2 17 5 13 3 -3 4 -12 1 -19z m513 -4 c0 -8 -5 -12 -10 -9 -6 4 -8 11 -5 16
9 14 15 11 15 -7z m-690 -48 c0 -2 -8 -3 -17 -2 -10 2 -19 13 -21 25 l-4 23
21 -21 c12 -12 21 -23 21 -25z m91 27 c-19 -4 -21 -7 -10 -14 11 -7 11 -9 -3
-9 -9 0 -19 4 -22 9 -7 11 11 20 39 19 15 -1 14 -2 -4 -5z m74 -39 c-29 -23
-82 -34 -70 -14 3 6 17 10 31 10 13 0 32 8 42 18 9 10 19 17 22 14 3 -2 -8
-15 -25 -28z m-795 -10 c0 -2 -7 -4 -15 -4 -8 0 -15 4 -15 10 0 5 7 7 15 4 8
-4 15 -8 15 -10z m-305 -24 c3 -5 1 -10 -4 -10 -6 0 -11 5 -11 10 0 6 2 10 4
10 3 0 8 -4 11 -10z m2397 -82 c-7 -7 -12 -8 -12 -2 0 6 3 14 7 17 3 4 9 5 12
2 2 -3 -1 -11 -7 -17z m-2592 -12 c0 -3 -4 -8 -10 -11 -5 -3 -10 -1 -10 4 0 6
5 11 10 11 6 0 10 -2 10 -4z m2510 -15 c-5 -11 -15 -23 -21 -27 -6 -3 -3 5 6
20 20 30 30 35 15 7z m-525 -148 c-11 -7 -22 -13 -27 -13 -14 0 -8 19 9 29 25
13 40 1 18 -16z m530 17 c3 -5 1 -10 -4 -10 -6 0 -11 5 -11 10 0 6 2 10 4 10
3 0 8 -4 11 -10z m-1368 -42 c-11 -7 -3 -12 15 -9 4 0 5 -6 1 -15 -5 -14 -8
-13 -26 4 -17 17 -18 22 -6 35 10 10 16 11 21 4 4 -6 2 -15 -5 -19z m-322 12
c-3 -5 -11 -10 -16 -10 -6 0 -7 5 -4 10 3 6 11 10 16 10 6 0 7 -4 4 -10z m134
-33 c1 -5 -3 -5 -9 -2 -5 3 -10 16 -9 28 0 21 1 21 9 2 5 -11 9 -24 9 -28z
m156 4 c10 -25 -6 -27 -26 -2 -10 13 -19 27 -19 32 0 13 38 -13 45 -30z m-72
9 c6 -23 -3 -26 -21 -8 -16 16 -15 28 2 28 7 0 16 -9 19 -20z m1487 -1 c0 -5
-4 -9 -10 -9 -5 0 -10 7 -10 16 0 8 5 12 10 9 6 -3 10 -10 10 -16z m990 -30
c-17 -24 -45 -65 -62 -92 -32 -48 -50 -58 -28 -15 12 22 83 120 105 144 23 26
14 3 -15 -37z m-2816 25 c4 -10 1 -14 -6 -12 -15 5 -23 28 -10 28 5 0 13 -7
16 -16z m1256 2 c0 -7 -9 -16 -20 -19 -13 -3 -20 0 -20 8 0 8 8 16 18 18 9 3
18 5 20 6 1 0 2 -5 2 -13z m-1915 -26 c3 -5 1 -10 -4 -10 -6 0 -11 5 -11 10 0
6 2 10 4 10 3 0 8 -4 11 -10z m605 -5 c10 -12 10 -15 -4 -15 -9 0 -16 7 -16
15 0 8 2 15 4 15 2 0 9 -7 16 -15z m559 -18 c-9 -21 -9 -30 1 -42 7 -8 8 -15
3 -15 -5 0 -15 11 -21 24 -8 19 -7 28 6 44 21 26 26 22 11 -11z m1591 23 c0
-5 -4 -10 -10 -10 -5 0 -10 5 -10 10 0 6 5 10 10 10 6 0 10 -4 10 -10z m-2930
-10 c0 -5 -5 -10 -11 -10 -5 0 -7 5 -4 10 3 6 8 10 11 10 2 0 4 -4 4 -10z
m2396 -7 c-2 -10 2 -21 8 -25 13 -8 -3 -59 -20 -65 -7 -2 -17 11 -23 29 -8 22
-8 34 -1 36 5 2 10 10 10 17 0 7 6 16 13 18 6 3 13 6 14 6 1 1 0 -7 -1 -16z
m624 8 c0 -12 -20 -25 -27 -18 -7 7 6 27 18 27 5 0 9 -4 9 -9z m-964 -17 c-3
-9 -6 -22 -6 -30 0 -8 -7 -14 -15 -14 -8 0 -15 -4 -15 -10 0 -5 -7 -10 -16
-10 -11 0 -14 5 -10 16 3 9 6 18 6 20 0 2 6 4 14 4 7 0 16 9 19 20 3 11 11 20
17 20 7 0 10 -7 6 -16z m594 -8 c0 -3 -4 -8 -10 -11 -5 -3 -10 -1 -10 4 0 6 5
11 10 11 6 0 10 -2 10 -4z m1058 -57 c-11 -33 -23 -58 -25 -55 -3 3 -1 18 5
33 6 15 16 40 21 56 20 54 19 26 -1 -34z m-1998 25 c0 22 28 -26 38 -64 9 -37
9 -46 -3 -53 -21 -11 -20 -77 0 -77 18 0 19 11 3 29 -11 11 -10 13 2 9 18 -6
24 -114 7 -125 -6 -4 -8 0 -4 10 8 22 -2 47 -19 47 -16 0 -15 -2 -18 62 -2 28
-9 53 -20 63 -23 24 -11 33 14 10 20 -18 20 -17 20 8 0 37 -10 56 -26 50 -8
-3 -18 5 -24 22 -14 37 -13 41 10 20 11 -10 20 -15 20 -11z m-282 -21 c2 -16
-3 -22 -20 -25 -15 -2 -22 -9 -20 -20 2 -11 -3 -18 -14 -18 -10 0 -14 5 -10
15 4 10 -2 19 -16 24 -19 7 -19 8 -4 14 10 4 22 5 26 2 5 -3 12 4 15 15 9 27
39 22 43 -7z m776 12 c-4 -8 -1 -15 5 -15 25 0 2 -84 -26 -95 -12 -4 -14 0 -9
19 3 14 2 28 -4 31 -5 3 -10 3 -11 -2 -2 -27 -9 -46 -20 -60 -8 -8 -15 -32
-16 -52 -1 -19 -7 -37 -13 -39 -5 -2 -10 -21 -10 -42 0 -21 -5 -42 -10 -45 -6
-4 -7 -13 -1 -23 9 -19 4 -42 -10 -42 -11 0 -12 77 0 84 4 3 6 17 4 31 -3 14
2 40 11 59 9 19 16 43 16 55 0 12 6 21 15 21 8 0 15 9 15 20 0 11 9 29 20 40
12 12 25 32 30 45 5 14 12 25 14 25 3 0 3 -7 0 -15z m361 -45 c-3 -5 -10 -10
-16 -10 -5 0 -9 5 -9 10 0 6 7 10 16 10 8 0 12 -4 9 -10z m-2575 -15 c0 -8 -4
-15 -10 -15 -5 0 -10 7 -10 15 0 8 5 15 10 15 6 0 10 -7 10 -15z m390 5 c0 -5
-2 -10 -4 -10 -3 0 -8 5 -11 10 -3 6 -1 10 4 10 6 0 11 -4 11 -10z m1161 -50
c5 0 9 -4 9 -10 0 -5 -6 -10 -14 -10 -15 0 -24 35 -17 65 4 15 6 11 9 -12 2
-18 7 -33 13 -33z m1624 -28 c-8 -65 -14 -82 -27 -82 -5 0 -6 5 -2 11 4 7 8
26 9 43 1 17 2 46 3 64 1 21 6 31 13 26 7 -4 9 -25 4 -62z m-1742 38 c3 -13 0
-20 -9 -20 -8 0 -14 9 -14 20 0 11 4 20 9 20 5 0 11 -9 14 -20z m1017 0 c0 -5
-5 -10 -11 -10 -5 0 -7 5 -4 10 3 6 8 10 11 10 2 0 4 -4 4 -10z m1226 -27 c-8
-15 -15 -25 -16 -21 0 12 23 58 27 54 3 -2 -2 -17 -11 -33z m-2166 7 c0 -5 -7
-10 -16 -10 -8 0 -12 5 -9 10 3 6 10 10 16 10 5 0 9 -4 9 -10z m153 -14 c15
-4 27 -13 27 -21 0 -20 -17 -19 -29 3 -9 14 -12 14 -20 3 -6 -9 -11 -10 -15
-2 -4 6 -12 9 -17 6 -5 -3 -6 1 -3 9 3 8 11 13 17 11 7 -2 24 -6 40 -9z m165
-34 c-5 -40 -27 -39 -25 1 1 24 6 33 15 29 7 -2 12 -16 10 -30z m1392 17 c0
-11 4 -18 8 -15 4 2 9 -5 9 -17 1 -12 7 -23 12 -25 6 -2 13 -18 16 -35 11 -55
-44 -152 -65 -117 -7 11 -11 8 -19 -13 -6 -16 -11 -30 -11 -32 0 -2 -14 -25
-31 -51 -24 -34 -29 -48 -19 -54 18 -11 4 -43 -25 -57 -24 -10 -25 -9 -25 17
0 16 5 32 10 35 6 3 20 27 31 53 12 26 30 59 40 74 11 14 19 37 19 51 0 13 9
36 20 50 22 28 25 48 9 64 -7 7 -8 26 -4 52 7 42 25 57 25 20z m-3200 -10 c0
-5 -7 -9 -15 -9 -15 0 -20 12 -9 23 8 8 24 -1 24 -14z m1461 4 c12 -15 12 -16
-4 -10 -10 4 -23 7 -28 7 -5 0 -9 5 -9 10 0 16 26 12 41 -7z m798 -20 c2 -2
-3 -3 -12 -3 -9 0 -22 10 -28 23 l-12 22 24 -20 c13 -11 26 -21 28 -22z m-975
12 c3 -8 1 -15 -4 -15 -6 0 -10 7 -10 15 0 8 2 15 4 15 2 0 6 -7 10 -15z m873
-7 c-3 -8 -6 -5 -6 6 -1 11 2 17 5 13 3 -3 4 -12 1 -19z m-569 -16 c22 2 28
-2 30 -19 2 -16 -2 -23 -12 -23 -9 0 -16 -8 -16 -20 0 -22 20 -26 38 -8 9 9
12 7 12 -10 0 -25 0 -25 -34 -12 -17 6 -27 6 -32 -1 -8 -13 -34 8 -34 29 0 12
3 13 12 4 18 -18 28 -15 28 8 0 11 5 20 11 20 5 0 7 5 4 10 -3 6 -15 10 -25
10 -23 0 -34 16 -23 33 5 9 9 7 11 -6 3 -13 11 -17 30 -15z m1494 6 c-7 -7
-12 -8 -12 -2 0 6 3 14 7 17 3 4 9 5 12 2 2 -3 -1 -11 -7 -17z m-3522 2 c0 -5
-5 -10 -11 -10 -5 0 -7 5 -4 10 3 6 8 10 11 10 2 0 4 -4 4 -10z m1798 -36 c-3
-28 -3 -29 -16 -7 -6 12 -9 29 -6 38 10 25 26 2 22 -31z m165 25 c10 -11 17
-25 15 -30 -4 -11 -48 27 -48 41 0 16 14 11 33 -11z m-1213 2 c0 -6 -4 -13
-10 -16 -5 -3 -10 1 -10 9 0 9 5 16 10 16 6 0 10 -4 10 -9z m1179 -46 c1 -5
-6 -2 -15 7 -10 9 -13 21 -8 29 5 9 9 8 15 -7 4 -10 8 -23 8 -29z m186 34 c11
-16 1 -19 -13 -3 -7 8 -8 14 -3 14 5 0 13 -5 16 -11z m566 1 c5 0 9 -7 9 -15
0 -9 17 -23 38 -33 20 -9 38 -20 40 -24 2 -4 14 -2 28 4 13 6 26 9 28 7 2 -2
6 -24 7 -49 l3 -45 -49 0 c-39 0 -50 -4 -53 -17 -2 -10 -7 -18 -10 -18 -12 1
-68 56 -75 73 -8 21 -27 22 -27 2 0 -16 29 -49 51 -58 11 -4 11 -6 -1 -6 -8
-1 -26 -17 -39 -36 -13 -20 -28 -32 -32 -28 -10 10 -15 65 -7 78 3 6 9 28 13
50 4 22 16 48 27 59 14 13 18 25 13 43 -5 21 -3 24 10 19 9 -3 21 -6 26 -6z
m-63 -11 c-10 -5 -18 -16 -18 -22 0 -7 -8 -24 -17 -37 -10 -14 -16 -33 -15
-42 2 -10 -2 -18 -7 -18 -16 0 -13 43 5 68 9 13 13 29 10 37 -5 13 11 22 44
24 11 0 11 -2 -2 -10z m-233 -19 c3 -10 1 -29 -5 -40 -8 -16 -8 -25 0 -35 8
-10 8 -19 0 -34 -6 -12 -12 -21 -13 -21 -1 0 -3 34 -3 75 -1 72 8 96 21 55z
m-520 -9 c3 -5 1 -12 -5 -16 -5 -3 -10 1 -10 9 0 18 6 21 15 7z m278 -11 c27
-13 38 -52 18 -65 -6 -3 -9 7 -8 22 1 19 -3 28 -13 28 -20 1 -40 14 -40 26 0
6 3 9 8 7 4 -2 19 -10 35 -18z m100 -10 c-3 -11 -9 -20 -14 -20 -10 0 -11 12
-3 34 9 22 23 10 17 -14z m1798 -3 c-10 -9 -11 -8 -5 6 3 10 9 15 12 12 3 -3
0 -11 -7 -18z m-2071 -47 c0 -12 -3 -12 -16 2 -9 9 -13 21 -9 28 9 14 25 -5
25 -30z m-601 -15 l0 -20 -9 20 c-5 11 -9 27 -9 35 -1 13 0 13 9 0 5 -8 9 -24
9 -35z m2653 23 c-7 -7 -12 -8 -12 -2 0 6 3 14 7 17 3 4 9 5 12 2 2 -3 -1 -11
-7 -17z m-3304 -22 c3 -12 -1 -17 -10 -14 -7 3 -15 13 -16 22 -3 12 1 17 10
14 7 -3 15 -13 16 -22z m1422 -1 c0 -25 -18 -25 -22 -1 -4 17 -1 23 9 19 7 -3
13 -11 13 -18z m111 2 c-1 -12 -15 -9 -19 4 -3 6 1 10 8 8 6 -3 11 -8 11 -12z
m179 9 c0 -2 -7 -6 -15 -10 -8 -3 -15 -1 -15 4 0 6 7 10 15 10 8 0 15 -2 15
-4z m-1360 -22 c0 -8 -5 -12 -10 -9 -6 4 -8 11 -5 16 9 14 15 11 15 -7z m854
1 c3 -8 1 -15 -4 -15 -6 0 -10 7 -10 15 0 8 2 15 4 15 2 0 6 -7 10 -15z m134
-11 c3 -19 2 -19 -13 0 -14 18 -15 18 -15 2 0 -10 -5 -16 -12 -14 -20 7 -20
26 -1 31 27 7 38 2 41 -19z m46 10 c4 -10 1 -14 -6 -12 -15 5 -23 28 -10 28 5
0 13 -7 16 -16z m1471 6 c-3 -5 -11 -10 -16 -10 -6 0 -7 5 -4 10 3 6 11 10 16
10 6 0 7 -4 4 -10z m419 -24 c-3 -15 -8 -25 -11 -23 -2 3 -1 17 3 31 3 15 8
25 11 23 2 -3 1 -17 -3 -31z m-2008 -13 c-10 -10 -19 5 -10 18 6 11 8 11 12 0
2 -7 1 -15 -2 -18z m1154 8 c0 -6 -4 -13 -10 -16 -5 -3 -10 1 -10 9 0 9 5 16
10 16 6 0 10 -4 10 -9z m-1187 -49 c15 -18 4 -24 -17 -9 -14 10 -16 19 -10 38
7 22 8 22 12 4 2 -11 9 -26 15 -33z m148 21 c-12 -20 -14 -14 -5 12 4 9 9 14
11 11 3 -2 0 -13 -6 -23z m59 -15 c0 -9 -4 -19 -9 -22 -5 -4 -7 3 -4 14 3 12
-1 22 -11 26 -9 3 -16 10 -16 15 0 5 9 4 20 -3 11 -7 20 -20 20 -30z m17 10
c-3 -7 -5 -2 -5 12 0 14 2 19 5 13 2 -7 2 -19 0 -25z m203 -11 c0 -5 -4 -5
-10 -2 -5 3 -10 14 -10 23 0 15 2 15 10 2 5 -8 10 -19 10 -23z m75 14 c-3 -6
-11 -8 -17 -5 -6 4 -18 -2 -25 -12 -14 -19 -15 -19 -11 1 2 10 14 22 28 25 29
8 35 6 25 -9z m-989 -116 c26 -25 53 -45 60 -45 26 0 29 -2 47 -30 10 -16 27
-32 37 -35 10 -3 25 -19 32 -35 7 -17 19 -30 25 -30 7 0 13 -6 13 -14 0 -28
19 -26 35 4 16 32 34 37 66 19 19 -10 19 -10 -1 -39 -23 -32 -26 -54 -7 -47
15 5 36 -21 37 -45 0 -10 -7 -18 -15 -18 -8 0 -15 8 -15 17 0 24 -17 4 -25
-29 -5 -19 -3 -28 5 -28 6 0 9 -8 6 -17 -3 -10 1 -30 8 -45 21 -40 6 -95 -39
-144 -13 -14 -105 -25 -105 -12 0 5 -12 0 -26 -11 -35 -27 -40 -27 -58 9 -13
27 -6 44 9 20 3 -5 18 -10 32 -10 25 0 25 1 10 18 -10 10 -17 26 -17 36 0 16
-44 41 -66 37 -6 0 -17 6 -24 14 -15 18 -14 18 27 6 l31 -9 -5 51 c-10 98 59
139 130 78 44 -39 60 -29 45 28 -6 23 -17 45 -24 48 -8 3 -14 11 -14 19 0 10
-7 13 -23 9 -38 -10 -78 12 -123 68 -60 73 -154 243 -154 277 0 8 9 -4 20 -28
11 -23 40 -63 66 -87z m802 98 c2 -11 -3 -23 -10 -25 -9 -4 -13 4 -13 23 0 32
18 34 23 2z m255 -10 c-7 -3 -13 -11 -13 -19 0 -8 -4 -14 -10 -14 -13 0 -13 3
2 35 8 19 14 23 22 14 8 -8 7 -13 -1 -16z m-513 2 c0 -9 -6 -12 -15 -9 -8 4
-12 10 -9 15 8 14 24 10 24 -6z m-1981 -29 c-3 -3 -11 5 -18 17 -13 21 -12 21
5 5 10 -10 16 -20 13 -22z m3941 30 c0 -2 -8 -10 -17 -17 -16 -13 -17 -12 -4
4 13 16 21 21 21 13z m-2110 -38 c0 -18 -2 -20 -9 -8 -6 8 -7 18 -5 22 9 14
14 9 14 -14z m260 12 c0 -5 -5 -10 -11 -10 -5 0 -7 5 -4 10 3 6 8 10 11 10 2
0 4 -4 4 -10z m548 -60 c-15 -35 -33 -38 -48 -10 -9 16 -8 20 5 20 8 0 15 6
15 14 0 8 8 22 18 32 16 17 17 17 20 -4 2 -13 -2 -36 -10 -52z m125 55 c8 -19
-13 -31 -24 -14 -13 20 -11 29 5 29 8 0 16 -7 19 -15z m-2120 -2 c3 9 13 7 40
-7 27 -14 34 -24 32 -42 -3 -28 34 -44 107 -44 32 0 50 -5 54 -14 3 -8 21 -17
40 -20 19 -4 34 -9 34 -11 0 -2 3 -10 6 -19 8 -21 -10 -21 -31 0 -18 18 -50
11 -42 -10 3 -8 0 -17 -8 -20 -7 -2 -16 2 -19 11 -5 12 -9 13 -21 3 -19 -16
-19 -30 0 -30 8 0 15 -9 15 -20 0 -11 5 -20 10 -20 6 0 10 -7 10 -15 0 -8 -4
-15 -10 -15 -5 0 -10 -5 -10 -10 0 -6 11 -8 28 -4 41 10 45 14 26 35 -10 11
-12 19 -6 19 7 0 12 7 12 15 0 24 20 17 30 -10 5 -14 13 -25 17 -25 5 0 9 -12
10 -26 1 -19 -2 -23 -10 -15 -6 6 -17 11 -24 11 -18 0 -16 -27 2 -34 8 -3 15
-12 15 -21 0 -8 9 -15 21 -15 16 0 19 4 14 20 -5 16 -2 20 15 20 12 0 19 -4
16 -9 -3 -5 2 -12 11 -15 13 -5 14 -9 5 -14 -19 -13 -19 -56 1 -60 20 -4 24
24 5 31 -8 3 -5 6 5 6 13 1 17 7 15 24 -2 15 6 28 27 42 28 20 31 20 49 4 18
-17 14 -45 -5 -34 -17 11 -49 -6 -49 -25 0 -14 10 -21 35 -26 19 -3 38 -11 42
-17 4 -6 -2 -8 -15 -5 -12 4 -22 2 -22 -3 0 -5 8 -9 19 -9 10 0 21 -9 24 -20
3 -11 1 -18 -3 -15 -9 6 -25 -13 -17 -21 2 -3 16 1 31 7 20 9 25 17 20 32 -6
18 -3 19 31 13 20 -4 42 -3 48 2 7 5 20 12 30 15 15 6 16 4 7 -13 -15 -28 -5
-40 30 -35 17 2 30 0 30 -4 0 -3 14 -12 30 -18 17 -6 30 -16 30 -22 0 -17 -57
-13 -64 4 -3 8 -17 15 -31 15 -14 0 -30 9 -37 20 -12 19 -68 30 -68 13 0 -14
44 -53 61 -53 10 0 21 -4 24 -10 3 -5 15 -10 26 -10 10 0 19 -4 19 -10 0 -5
-9 -10 -21 -10 -11 0 -17 -4 -14 -10 3 -5 -3 -10 -14 -10 -12 0 -21 -3 -21 -6
0 -7 48 -54 56 -54 2 0 13 -9 23 -19 11 -11 41 -22 68 -26 72 -10 84 -19 29
-23 -27 -2 -61 2 -77 8 -17 7 -34 8 -44 3 -14 -8 -14 -11 4 -27 17 -16 23 -17
36 -6 14 11 21 11 46 -4 16 -9 33 -14 39 -11 5 3 16 2 24 -2 13 -7 12 -11 0
-28 -11 -14 -17 -17 -22 -8 -5 7 -17 10 -30 6 -23 -6 -23 -6 -3 -20 16 -10 26
-11 41 -3 11 6 31 7 47 3 27 -7 27 -8 -10 -13 -50 -7 -48 -24 3 -28 61 -5 48
-17 -17 -16 -54 1 -58 3 -55 24 3 19 0 22 -19 17 -13 -3 -28 -2 -35 4 -8 7
-14 7 -19 -1 -3 -5 -17 -7 -31 -4 -18 5 -24 2 -24 -10 0 -13 9 -15 50 -10 29
3 50 1 50 -4 0 -14 -25 -21 -40 -12 -7 4 -19 6 -27 3 -11 -4 -11 -8 -2 -20 8
-9 22 -12 43 -7 24 5 28 3 19 -6 -14 -15 -6 -40 13 -40 8 0 14 10 14 25 0 21
3 24 18 16 9 -5 30 -7 45 -4 21 4 26 2 22 -9 -7 -17 -45 -42 -45 -28 0 24 -28
7 -33 -20 -4 -16 -12 -30 -18 -30 -6 0 -9 8 -7 18 3 11 -2 23 -13 30 -22 14
-49 16 -49 3 0 -5 -9 -11 -21 -14 -15 -4 -22 1 -29 18 -12 31 -25 38 -40 20
-11 -13 -10 -18 6 -30 18 -13 18 -14 -3 -8 -25 6 -30 22 -11 41 9 9 9 15 1 23
-12 12 -41 1 -63 -26 -12 -14 -11 -18 1 -26 11 -7 11 -9 -3 -9 -22 0 -23 -13
-3 -30 12 -10 15 -9 15 6 0 14 3 15 12 6 7 -7 19 -12 28 -12 17 0 70 -45 70
-60 0 -15 -11 -12 -32 7 -18 16 -21 16 -48 -1 -30 -17 -30 -17 -40 8 -5 14
-14 26 -20 26 -5 0 -10 7 -10 15 0 9 -15 25 -34 36 -19 11 -36 29 -39 41 -5
19 -10 20 -74 14 -51 -5 -64 -4 -50 4 29 19 19 30 -27 30 -34 0 -48 -5 -60
-21 -20 -29 -56 -19 -109 31 -32 29 -37 38 -20 34 15 -4 23 0 28 15 5 18 12
20 49 15 28 -4 46 -2 51 5 10 18 2 22 -44 24 -22 0 -43 7 -45 14 -8 19 6 23
54 12 28 -6 47 -6 53 0 15 15 -10 40 -32 34 -10 -3 -22 0 -25 6 -4 6 -18 8
-31 5 -12 -3 -26 -1 -29 5 -4 6 -20 8 -36 4 -18 -3 -36 0 -45 7 -13 11 -21 8
-46 -21 -17 -19 -28 -29 -25 -22 11 21 -15 26 -35 7 -11 -10 -20 -14 -19 -9 7
32 -2 36 -25 11 -30 -32 -29 -29 -9 -68 12 -24 18 -28 25 -17 5 8 9 10 9 4 0
-5 7 -1 15 9 14 19 15 18 15 -11 0 -32 15 -52 28 -38 4 4 1 10 -5 12 -18 6
-16 23 2 23 14 0 20 24 16 59 -3 20 20 8 38 -19 15 -22 15 -24 -1 -18 -12 5
-18 1 -20 -15 -2 -16 14 -39 60 -84 34 -35 68 -63 75 -63 8 0 7 -3 -2 -9 -9
-6 -22 -6 -32 0 -29 15 -93 -16 -67 -32 10 -6 8 -12 -7 -24 -19 -16 -19 -16 6
-11 20 4 29 0 38 -18 l13 -23 65 23 c36 13 78 24 92 23 l26 0 -25 -17 c-14 -9
-41 -33 -60 -53 -19 -20 -47 -39 -62 -43 -16 -3 -28 -11 -28 -17 0 -6 -5 -7
-10 -4 -6 4 -17 1 -25 -5 -8 -7 -22 -10 -31 -6 -9 4 -25 -5 -42 -22 -30 -31
-108 -79 -96 -60 4 7 21 30 37 51 22 29 27 41 18 47 -8 5 0 10 23 14 50 9 53
22 6 30 -21 3 -43 12 -47 19 -13 21 -56 34 -89 27 -75 -16 -81 23 -11 70 28
19 65 47 81 62 26 25 26 28 8 28 -11 0 -23 -6 -25 -12 -3 -8 -6 -6 -6 4 -2 31
-50 73 -84 73 -30 1 -87 30 -87 44 0 4 -16 13 -35 20 -35 12 -44 25 -25 36 6
3 10 1 10 -4 0 -6 7 -11 15 -11 8 0 15 4 15 10 0 5 6 7 14 4 8 -3 17 -1 21 5
6 10 -8 16 -28 12 -5 -1 -7 4 -5 11 3 8 25 14 51 16 48 3 63 20 27 29 -11 3
-20 11 -20 18 0 7 -11 20 -25 29 -14 9 -23 21 -20 26 3 5 -6 19 -20 32 -14 12
-25 27 -25 34 0 15 54 29 72 18 7 -4 -2 9 -19 27 -34 36 -42 59 -21 59 6 0 35
-8 64 -17 60 -19 76 -13 49 17 -12 14 -14 20 -5 20 7 0 18 -7 25 -16 15 -22
95 -30 118 -12 19 15 37 74 29 98 -3 8 -14 -6 -27 -35 -21 -48 -22 -49 -22
-17 0 17 4 32 9 32 4 0 8 11 8 24 0 36 17 41 36 11 14 -22 15 -32 5 -65 -6
-21 -25 -50 -41 -63 l-29 -25 31 -11 c47 -16 98 -14 98 4 0 9 7 18 15 21 16 6
21 40 7 46 -4 2 -18 22 -30 46 -12 24 -18 41 -12 37 5 -3 10 -1 10 4 0 6 -5
11 -11 11 -14 0 -39 26 -39 40 0 8 -9 10 -24 6 -14 -3 -27 -2 -31 3 -3 5 2 11
10 13 14 3 14 6 -1 26 -12 17 -19 21 -27 13 -16 -16 -35 -13 -57 9 -28 28 -25
37 16 50 36 12 38 17 19 63 -11 26 21 22 51 -8 24 -24 44 -32 44 -19 0 3 -11
15 -25 26 -30 23 -34 43 -6 28 14 -7 21 -6 24 3z m1747 3 c0 -2 -8 -10 -17
-17 -16 -13 -17 -12 -4 4 13 16 21 21 21 13z m-590 -48 c0 -15 -5 -19 -20 -15
-10 3 -21 0 -23 -7 -3 -8 -8 -8 -17 0 -9 9 -7 16 10 32 26 24 50 19 50 -10z
m134 26 c9 -3 16 -10 16 -15 0 -6 -7 -6 -17 -1 -10 5 -24 7 -30 5 -7 -3 -13 0
-13 6 0 12 20 14 44 5z m352 -31 c-13 -24 -15 -25 -16 -7 0 11 5 25 12 32 19
19 21 6 4 -25z m-411 17 c3 -5 1 -10 -4 -10 -6 0 -11 5 -11 10 0 6 2 10 4 10
3 0 8 -4 11 -10z m133 -8 c2 -7 -2 -10 -12 -6 -9 3 -16 11 -16 16 0 13 23 5
28 -10z m319 -4 c-3 -8 -6 -5 -6 6 -1 11 2 17 5 13 3 -3 4 -12 1 -19z m243 6
c0 -8 -5 -12 -10 -9 -6 4 -8 11 -5 16 9 14 15 11 15 -7z m140 7 c0 -17 32 -42
47 -37 9 4 13 1 10 -6 -6 -18 -39 -10 -59 14 -20 23 -23 38 -8 38 6 0 10 -4
10 -9z m-2639 -18 c13 -15 12 -15 -8 -4 -24 12 -29 21 -14 21 5 0 15 -7 22
-17z m2402 2 c-3 -9 -8 -14 -10 -11 -3 3 -2 9 2 15 9 16 15 13 8 -4z m-2273
-10 c0 -8 -4 -15 -9 -15 -13 0 -22 16 -14 24 11 11 23 6 23 -9z m84 0 c11 -8
15 -15 10 -15 -6 0 -19 7 -30 15 -10 8 -14 14 -9 14 6 0 19 -6 29 -14z m2566
-6 c3 -4 18 -12 33 -18 15 -6 27 -16 27 -22 0 -8 -5 -7 -17 2 -15 13 -16 11
-10 -18 5 -25 3 -33 -8 -33 -23 0 -65 -22 -65 -35 0 -6 -17 -25 -37 -41 -57
-46 -69 -51 -47 -21 10 15 24 27 31 27 6 0 14 8 17 18 4 11 17 29 31 42 20 19
22 26 13 44 -6 11 -17 25 -25 29 -23 14 3 50 30 41 12 -4 24 -10 27 -15z
m-1886 -5 c4 -9 4 -19 2 -21 -8 -8 -26 8 -26 23 0 19 16 18 24 -2z m923 -6
c-3 -8 -6 -5 -6 6 -1 11 2 17 5 13 3 -3 4 -12 1 -19z m1520 4 c-19 -20 -23
-47 -7 -37 7 4 8 -3 4 -22 -9 -37 -14 -42 -14 -12 0 14 -4 29 -10 35 -11 11
14 54 32 54 6 0 4 -8 -5 -18z m454 -5 c-21 -26 8 -37 54 -22 l40 14 -26 -22
c-15 -12 -24 -28 -22 -34 5 -15 33 -18 33 -4 0 5 8 7 19 4 10 -3 22 0 25 6 4
6 17 11 29 11 20 -1 18 -4 -13 -30 -19 -16 -44 -30 -55 -32 -12 -2 -21 -12
-23 -26 -3 -21 -1 -22 17 -13 30 17 37 -6 12 -40 -11 -15 -21 -35 -21 -43 0
-16 -18 -36 -52 -60 -16 -11 -18 -18 -11 -28 6 -7 13 -24 15 -38 3 -24 6 -25
82 -28 61 -3 83 -8 99 -23 11 -10 27 -19 34 -19 18 0 17 -5 -12 -36 -32 -34
-32 -44 1 -44 15 0 36 -10 48 -23 l22 -24 -61 -21 c-33 -12 -67 -22 -76 -22
-20 0 -31 -23 -22 -45 3 -9 20 -22 38 -29 35 -15 75 -46 75 -58 0 -5 -9 -8
-20 -8 -14 0 -22 -10 -28 -32 -8 -33 -9 -33 -60 -30 l-52 4 0 -31 c0 -17 -5
-31 -11 -31 -7 0 -9 -10 -4 -27 5 -23 4 -25 -9 -14 -9 7 -14 17 -11 21 2 4 -5
17 -16 28 -18 20 -14 28 14 23 4 0 7 4 7 10 0 7 -9 9 -22 5 -13 -3 -38 -6 -57
-6 -25 0 -32 -4 -27 -15 3 -8 -2 -18 -10 -23 -13 -7 -3 -18 47 -56 l62 -47
-36 4 c-20 2 -40 7 -44 10 -3 4 -15 7 -25 7 -10 0 -18 5 -18 10 0 6 -9 10 -20
10 -11 0 -20 7 -20 15 0 8 -8 15 -17 15 -9 0 -24 6 -32 14 -24 21 -101 10
-101 -15 0 -29 -16 -30 -29 -3 -14 31 0 54 30 54 29 0 22 17 -12 29 -26 9 -30
8 -25 -4 4 -11 -2 -15 -22 -15 -15 0 -34 4 -42 9 -10 7 -21 2 -40 -17 -23 -24
-24 -28 -11 -39 14 -11 14 -12 -4 -13 -14 0 -16 -3 -7 -9 10 -6 10 -10 -2 -20
-22 -18 -39 -5 -26 20 9 16 6 26 -12 49 -13 16 -30 29 -40 29 -9 1 -19 7 -21
14 -10 23 -47 -35 -42 -67 5 -37 0 -45 -25 -39 -15 4 -17 9 -10 23 12 23 2 32
-20 18 -20 -13 -50 -5 -50 14 0 8 3 9 10 2 18 -18 82 7 76 29 -3 11 2 17 14
17 11 0 21 4 24 9 9 15 -5 41 -22 41 -8 0 -12 3 -9 6 9 9 77 12 82 4 2 -4 31
-6 64 -4 33 2 72 -1 87 -6 15 -6 30 -8 33 -4 3 4 1 9 -6 11 -17 6 -4 33 16 33
15 1 15 2 0 13 -9 7 -14 18 -12 25 6 15 -23 16 -33 1 -3 -6 0 -15 7 -20 10 -6
11 -9 2 -9 -7 0 -13 -7 -13 -15 0 -24 -20 -17 -30 11 -12 31 -44 29 -48 -4 -2
-13 -9 -21 -15 -19 -7 2 -10 13 -9 23 2 10 4 29 4 42 0 21 11 26 49 23 9 -1
22 5 29 14 16 19 30 19 30 1 0 -10 10 -13 36 -11 46 5 62 19 44 40 -13 16 -25
12 -25 -8 0 -7 -7 -12 -15 -12 -8 0 -15 7 -15 15 0 9 -8 14 -20 12 -16 -3 -17
-1 -7 11 10 12 9 16 -7 20 -24 6 -34 -2 -22 -17 13 -16 -14 -50 -33 -43 -9 4
-13 13 -10 22 4 10 0 15 -10 15 -9 0 -16 4 -16 9 0 5 8 7 19 4 24 -6 36 23 14
35 -9 5 -31 6 -50 2 -18 -5 -42 -6 -53 -3 -13 3 -20 0 -20 -8 0 -10 -3 -10
-11 -2 -6 6 -18 9 -25 6 -8 -3 -21 0 -28 6 -10 9 -16 9 -21 1 -3 -6 -30 -10
-58 -10 -53 1 -105 -5 -138 -15 -11 -4 -19 -2 -19 4 0 6 5 11 11 11 7 0 20 10
30 22 16 17 19 18 19 5 0 -20 30 -23 48 -5 10 10 14 10 21 0 5 -8 18 -10 39
-6 40 8 47 18 26 38 -24 24 -5 19 31 -9 18 -13 36 -21 40 -17 4 4 46 8 93 8
139 2 142 3 142 19 0 9 -7 18 -15 21 -10 4 -13 13 -10 25 5 13 1 19 -10 19
-19 0 -34 -32 -17 -38 7 -2 12 -8 12 -13 0 -4 -7 -6 -15 -3 -8 4 -22 1 -29 -5
-9 -7 -17 -8 -20 -2 -8 13 4 41 17 41 6 0 20 9 32 20 21 20 62 19 49 -1 -12
-20 28 -21 41 -2 17 24 67 21 58 -3 -3 -9 2 -14 16 -14 12 0 21 -4 21 -10 0
-11 -35 -32 -42 -24 -3 2 -11 -2 -18 -11 -7 -8 -25 -15 -41 -15 -33 0 -40 -28
-13 -54 18 -18 34 -21 34 -6 0 6 11 8 25 4 15 -4 25 -2 25 5 0 10 -20 15 -47
12 -7 -1 -13 3 -13 8 0 19 21 22 45 7 28 -19 51 -21 60 -5 4 6 -2 13 -14 16
-21 5 -30 23 -11 23 5 0 26 -8 46 -17 28 -14 38 -15 41 -5 3 6 12 12 20 12 12
0 13 -3 4 -14 -9 -10 -8 -16 3 -26 25 -20 35 -3 21 37 -13 39 -29 52 -40 34
-11 -19 -30 -11 -52 23 l-22 34 40 33 c37 31 50 61 29 74 -5 3 -17 -6 -26 -20
-9 -13 -20 -23 -24 -20 -5 3 -11 -4 -15 -15 -3 -11 -13 -20 -22 -20 -14 0 -14
2 0 18 10 10 14 22 10 25 -3 4 2 7 12 7 10 0 25 8 34 18 28 31 48 34 55 6 8
-29 26 -23 26 9 0 17 2 19 9 8 7 -11 11 -9 21 9 13 25 6 40 -12 22 -15 -15
-42 -16 -33 -2 4 6 2 17 -5 25 -7 9 -8 15 0 20 5 3 10 -1 10 -10 0 -21 34 -16
38 6 1 8 -8 27 -22 42 -17 18 -20 27 -11 27 8 0 16 4 19 9 11 17 -7 72 -26 82
-16 9 -25 6 -48 -16 -16 -15 -33 -24 -39 -21 -5 4 -15 -3 -21 -14 -8 -14 -8
-20 0 -20 6 0 8 -5 4 -11 -4 -8 -9 -7 -14 2 -7 10 -14 9 -34 -5 -32 -20 -35
-40 -5 -31 15 5 19 4 14 -5 -4 -7 -17 -9 -32 -5 -18 4 -32 -1 -51 -20 -77 -73
-91 -82 -116 -78 -29 6 -34 -8 -12 -30 11 -11 12 -17 3 -26 -15 -15 -32 -14
-19 2 7 8 6 16 -3 24 -15 14 -31 0 -20 -17 3 -5 -1 -10 -9 -10 -9 0 -16 8 -16
18 0 9 -9 23 -20 29 -16 11 -23 9 -47 -12 -15 -13 -22 -25 -15 -25 6 0 12 5
12 10 0 16 17 12 24 -5 7 -18 -33 -38 -48 -24 -6 5 -20 9 -33 9 -24 0 -28 -14
-17 -56 7 -27 61 -38 73 -16 5 9 17 13 30 9 11 -3 21 -4 21 -2 0 2 3 11 7 21
5 14 2 16 -23 10 -27 -6 -28 -5 -10 9 21 16 36 19 36 7 0 -4 14 -13 32 -21 29
-13 30 -15 13 -28 -11 -7 -27 -11 -36 -8 -10 3 -20 1 -24 -5 -4 -6 -15 -8 -25
-5 -10 3 -21 1 -25 -5 -3 -5 -17 -10 -31 -10 -13 0 -24 -5 -24 -11 0 -5 -5 -7
-11 -4 -6 4 -8 13 -5 21 3 8 -1 17 -9 21 -10 3 -13 12 -9 25 5 17 3 18 -15 9
-15 -9 -27 -9 -41 -1 -27 14 -15 33 16 26 16 -4 26 -2 30 7 3 8 21 23 40 33
19 10 34 22 34 26 0 5 7 8 15 8 19 0 97 69 90 80 -7 11 15 7 43 -9 28 -15 36
-10 27 18 -3 12 -15 21 -26 21 -17 0 -18 3 -8 23 11 20 11 21 -4 9 -14 -12
-15 -11 -4 12 7 14 14 21 15 16 7 -19 24 -10 19 10 -3 10 1 27 9 37 12 16 12
16 7 -7 l-7 -25 25 28 c16 19 30 26 41 22 15 -6 15 -10 -2 -51 -11 -24 -16
-44 -12 -44 4 0 23 16 42 35 34 35 77 48 67 21 -4 -10 0 -12 14 -9 21 6 27
-12 7 -20 -9 -4 -9 -6 -2 -6 7 -1 22 7 35 18 22 18 22 19 5 36 -23 24 -7 39
28 25 36 -13 87 1 141 39 41 29 57 32 36 8z m-2044 -19 c-3 -8 -6 -5 -6 6 -1
11 2 17 5 13 3 -3 4 -12 1 -19z m1153 12 c0 -5 -4 -10 -10 -10 -5 0 -10 5 -10
10 0 6 5 10 10 10 6 0 10 -4 10 -10z m-1007 -41 c-3 -11 -9 -17 -12 -12 -9 14
-41 24 -41 13 0 -6 -5 -10 -11 -10 -8 0 -7 5 1 15 7 9 21 13 31 10 11 -4 19
-2 19 5 0 6 4 9 9 6 5 -3 7 -15 4 -27z m747 11 c0 -5 -7 -10 -16 -10 -8 0 -12
5 -9 10 3 6 10 10 16 10 5 0 9 -4 9 -10z m54 -27 c-10 -7 -14 -13 -9 -13 5 0
-2 -11 -15 -25 -13 -14 -28 -25 -34 -24 -6 0 -5 3 2 6 6 2 12 13 12 23 0 10 7
20 15 24 8 3 15 15 15 27 0 18 2 20 16 8 14 -12 14 -14 -2 -26z m-2444 -10 c0
-13 -3 -13 -15 -3 -8 7 -12 16 -9 21 8 13 24 1 24 -18z m1556 -10 c-11 -11
-19 6 -11 24 8 17 8 17 12 0 3 -10 2 -21 -1 -24z m724 23 c0 -8 -7 -16 -15
-20 -12 -4 -13 -2 -2 14 14 24 17 25 17 6z m-2399 -17 c19 -16 20 -18 4 -10
-34 17 -51 31 -39 31 7 0 22 -9 35 -21z m1579 11 c0 -5 -4 -10 -10 -10 -5 0
-10 5 -10 10 0 6 5 10 10 10 6 0 10 -4 10 -10z m900 1 c0 -17 -12 -41 -21 -41
-7 0 -7 24 0 48 2 7 21 1 21 -7z m630 -5 c0 -8 -7 -16 -15 -20 -8 -3 -15 0
-15 6 0 7 -5 6 -15 -2 -18 -15 -20 1 -3 18 16 16 48 15 48 -2z m-100 -25 c0
-14 -18 -23 -30 -16 -6 4 -8 11 -5 16 8 12 35 12 35 0z m550 -6 c0 -8 -7 -15
-15 -15 -16 0 -20 12 -8 23 11 12 23 8 23 -8z m-1901 -37 c1 -5 -6 -8 -14 -8
-16 0 -19 9 -8 36 6 16 7 16 14 -2 4 -10 8 -22 8 -26z m1028 -5 c-3 -2 -14 1
-26 9 l-21 13 23 12 c19 10 22 9 25 -9 2 -11 1 -22 -1 -25z m-2322 27 c3 -5 2
-10 -4 -10 -5 0 -13 5 -16 10 -3 6 -2 10 4 10 5 0 13 -4 16 -10z m2768 -22
c-9 -11 -19 -15 -21 -9 -4 13 20 40 31 34 5 -3 0 -14 -10 -25z m-181 -10 c-9
-9 -18 -8 -39 2 l-28 13 30 7 c35 8 55 -4 37 -22z m111 11 c-6 -22 -26 -20
-31 2 -1 8 6 15 17 16 14 1 17 -3 14 -18z m507 1 c0 -5 -2 -10 -4 -10 -3 0 -8
5 -11 10 -3 6 -1 10 4 10 6 0 11 -4 11 -10z m-1219 -37 c-12 -20 -14 -14 -5
12 4 9 9 14 11 11 3 -2 0 -13 -6 -23z m325 10 c18 -25 17 -35 -3 -32 -10 1
-31 -3 -46 -9 -16 -7 -33 -12 -38 -12 -16 0 -10 20 9 27 9 4 23 15 30 25 16
23 31 23 48 1z m-1001 -3 c3 -5 1 -10 -4 -10 -6 0 -11 5 -11 10 0 6 2 10 4 10
3 0 8 -4 11 -10z m1240 -11 c10 -16 -17 -21 -47 -8 -27 11 -28 14 -12 19 21 8
52 2 59 -11z m98 -3 c3 -8 -2 -20 -11 -28 -10 -8 -13 -8 -9 -1 11 18 -8 24
-29 8 -24 -18 -34 -19 -34 -1 0 8 17 18 38 24 20 5 38 10 38 11 1 1 4 -5 7
-13z m-1413 -6 c0 -5 -4 -10 -10 -10 -5 0 -10 5 -10 10 0 6 5 10 10 10 6 0 10
-4 10 -10z m1929 -31 c-13 -10 -25 -14 -27 -9 -5 15 22 38 37 32 10 -4 7 -10
-10 -23z m642 8 c-13 -13 -26 -3 -16 12 3 6 11 8 17 5 6 -4 6 -10 -1 -17z
m149 9 c0 -8 -4 -17 -9 -21 -12 -7 -24 12 -16 25 9 15 25 12 25 -4z m-1760
-15 c0 -5 -7 -12 -16 -15 -14 -5 -15 -4 -4 9 14 17 20 19 20 6z m317 -16 c49
-23 52 -30 21 -40 -14 -4 -18 -8 -10 -12 11 -4 1 -33 -26 -73 -2 -3 -12 5 -22
18 -14 17 -33 25 -67 28 -61 6 -64 10 -11 18 48 7 82 41 53 52 -8 4 -23 0 -31
-7 -17 -14 -124 -21 -124 -8 0 11 28 19 73 20 23 1 34 3 24 6 -30 8 -11 18 35
18 23 0 62 -9 85 -20z m183 16 c0 -6 -4 -13 -10 -16 -5 -3 -10 1 -10 9 0 9 5
16 10 16 6 0 10 -4 10 -9z m-1868 -50 c-2 -25 3 -34 24 -43 l27 -13 -44 -10
c-42 -11 -45 -10 -71 18 -38 39 -36 51 7 44 37 -6 45 3 20 23 -21 17 -9 31 18
21 17 -7 21 -16 19 -40z m1792 33 c3 -9 4 -20 0 -25 -3 -5 0 -9 6 -9 6 0 -1
-17 -17 -37 -15 -21 -28 -39 -29 -41 0 -1 -9 0 -18 4 -15 6 -15 8 4 21 20 14
30 81 10 68 -15 -9 -12 2 6 19 20 20 30 20 38 0z m1476 6 c0 -5 -4 -10 -10
-10 -5 0 -10 5 -10 10 0 6 5 10 10 10 6 0 10 -4 10 -10z m-2826 -16 c3 -8 2
-12 -4 -9 -6 3 -10 10 -10 16 0 14 7 11 14 -7z m1776 -2 c0 -5 -6 -9 -12 -9
-7 0 -21 -4 -30 -8 -13 -5 -18 -2 -18 9 0 11 9 16 30 16 17 0 30 -4 30 -8z
m-2400 -22 c8 -16 8 -24 -4 -35 -8 -8 -19 -15 -25 -15 -15 0 -14 17 1 22 9 3
8 9 -5 22 -22 22 -21 26 3 26 10 0 24 -9 30 -20z m1640 10 c0 -5 -5 -10 -11
-10 -5 0 -7 5 -4 10 3 6 8 10 11 10 2 0 4 -4 4 -10z m403 -14 c-16 -15 -32
-21 -37 -16 -14 14 13 40 41 40 l24 0 -28 -24z m-463 -6 c-8 -5 -19 -10 -25
-10 -5 0 -3 5 5 10 8 5 20 10 25 10 6 0 3 -5 -5 -10z m748 -12 c-3 -7 -14 -14
-26 -16 -12 -2 -22 -7 -22 -12 0 -5 -7 -7 -16 -3 -12 4 -10 9 13 24 32 22 57
25 51 7z m-1728 -12 c0 -8 8 -17 18 -19 14 -4 14 -5 -3 -6 -27 -1 -49 14 -41
28 10 16 26 14 26 -3z m1035 -10 c-10 -7 -15 -18 -12 -23 4 -6 0 -16 -8 -23
-11 -9 -13 -7 -11 16 3 26 34 60 45 49 2 -3 -4 -11 -14 -19z m360 4 c-3 -5
-12 -10 -18 -10 -7 0 -6 4 3 10 19 12 23 12 15 0z m365 -28 c0 -10 -22 -32
-32 -32 -5 0 -3 9 4 20 13 20 28 27 28 12z m-634 -17 c-19 -14 -36 -12 -36 6
0 5 12 9 28 9 26 -1 26 -1 8 -15z m79 5 c3 -5 -1 -10 -9 -10 -9 0 -16 5 -16
10 0 6 4 10 9 10 6 0 13 -4 16 -10z m625 -5 c-7 -8 -17 -12 -22 -9 -6 4 -5 10
3 15 22 14 33 10 19 -6z m-3860 -10 c0 -8 -4 -15 -10 -15 -5 0 -10 7 -10 15 0
8 5 15 10 15 6 0 10 -7 10 -15z m3107 9 c-3 -3 -12 -4 -19 -1 -8 3 -5 6 6 6
11 1 17 -2 13 -5z m207 -45 c-11 -13 -25 -17 -40 -13 -22 6 -24 3 -24 -26 0
-21 -4 -30 -12 -27 -7 2 -12 14 -10 25 2 16 -2 22 -17 22 -22 0 -40 20 -19 21
48 2 85 11 97 24 11 11 18 12 28 3 11 -9 11 -14 -3 -29z m366 37 c0 -2 -9 -6
-20 -9 -11 -3 -18 -1 -14 4 5 9 34 13 34 5z m50 -11 c0 -15 -38 -40 -47 -31
-3 3 5 14 18 25 29 25 29 25 29 6z m-670 -14 c0 -5 -14 -14 -31 -20 -41 -14
-42 -14 -27 3 7 8 16 12 20 10 4 -2 9 0 13 6 8 12 25 13 25 1z m107 -18 c-7
-11 -68 -10 -64 2 1 5 9 8 19 7 9 -2 19 2 23 8 5 8 11 8 17 2 6 -6 8 -14 5
-19z m633 13 c-6 -8 -18 -12 -27 -9 -12 5 -12 7 -1 14 7 5 19 9 27 9 11 0 11
-3 1 -14z m-830 -13 c0 -5 -12 -14 -28 -20 l-27 -13 24 20 c25 22 31 24 31 13z
m680 -32 c-6 -12 -19 -21 -28 -21 -10 0 -22 -4 -27 -9 -14 -12 -80 -21 -94
-11 -19 11 2 22 42 22 18 0 50 10 72 23 46 26 51 25 35 -4z m-283 -7 c-3 -3
-12 -4 -19 -1 -8 3 -5 6 6 6 11 1 17 -2 13 -5z m-759 -26 c20 -12 47 -21 60
-20 13 1 20 -2 17 -8 -3 -6 -1 -10 4 -10 6 0 11 -5 11 -11 0 -5 -5 -7 -12 -3
-7 5 -9 2 -5 -8 3 -9 0 -21 -6 -27 -8 -8 -8 -11 0 -11 6 0 13 5 15 12 7 21 33
16 45 -8 9 -19 8 -24 -3 -24 -8 0 -11 -6 -8 -15 4 -8 16 -15 28 -15 19 -1 19
-2 4 -11 -10 -5 -18 -15 -18 -21 0 -6 3 -8 7 -5 3 4 13 1 21 -6 11 -8 13 -8 9
0 -5 7 -1 9 12 6 11 -3 22 -11 25 -18 3 -8 -2 -11 -13 -8 -18 5 -36 -21 -26
-36 12 -20 -46 -155 -71 -165 -8 -3 -12 -11 -8 -17 4 -7 3 -9 -4 -5 -6 3 -16
1 -24 -6 -7 -7 -25 -19 -40 -27 -14 -7 -24 -19 -22 -26 3 -7 -5 -15 -18 -19
-33 -8 -48 -7 -48 4 0 5 6 7 14 4 8 -3 17 -1 21 5 7 12 -8 14 -42 5 -24 -7
-38 -44 -20 -57 8 -6 8 -7 -3 -4 -8 2 -14 13 -13 23 2 25 -18 36 -32 17 -9
-11 -14 -13 -19 -5 -4 7 -2 12 4 12 6 0 8 5 5 11 -4 6 -12 8 -19 6 -19 -7 -58
12 -50 24 4 7 3 9 -4 5 -12 -7 -62 13 -62 26 0 4 -6 8 -14 8 -26 0 -43 31 -49
91 -2 14 -15 39 -30 55 -27 29 -35 54 -17 54 6 0 10 7 10 16 0 10 6 13 19 9
16 -5 20 1 26 42 8 56 28 83 56 76 25 -7 24 -15 -6 -43 -28 -26 -32 -78 -6
-72 17 4 42 -17 35 -29 -3 -6 9 -4 27 4 18 7 34 18 37 25 4 14 -24 16 -33 2
-3 -5 -10 -10 -16 -10 -5 0 0 9 11 20 24 24 25 39 6 46 -15 6 -30 34 -18 34
29 -1 102 -103 102 -144 0 -10 9 -16 25 -16 14 0 28 -7 31 -15 4 -8 11 -12 18
-8 6 3 1 -5 -11 -19 -25 -26 -31 -52 -10 -45 6 2 20 0 30 -5 13 -7 17 -5 17
11 0 18 4 19 25 11 19 -7 23 -6 18 6 -4 10 1 13 18 12 29 -4 71 59 49 72 -11
7 -11 11 0 25 12 14 12 18 -1 26 -18 11 -39 12 -39 1 0 -5 -7 -17 -15 -28 -15
-18 -16 -17 -10 14 7 34 -9 44 -33 20 -9 -9 -12 -9 -12 3 0 20 35 35 83 34 20
0 37 3 37 7 0 12 -47 58 -52 52 -4 -3 -5 2 -4 12 2 31 -19 25 -32 -8 -10 -26
-14 -30 -22 -18 -5 8 -7 17 -4 21 4 7 -39 39 -54 39 -5 0 -5 -17 1 -38 6 -23
7 -50 2 -68 -8 -26 -10 -22 -19 38 -7 55 -13 69 -30 74 -11 4 -22 2 -24 -5 -5
-16 -22 -14 -22 4 0 8 4 15 9 15 5 0 11 10 15 23 4 16 8 19 15 9 7 -11 9 -11
13 0 9 22 94 20 136 -4z m782 -10 c0 -19 -2 -20 -10 -8 -13 19 -13 30 0 30 6
0 10 -10 10 -22z m-1737 -2 c4 -9 14 -12 26 -9 12 3 21 1 21 -6 0 -6 -7 -11
-15 -11 -22 0 -18 -18 5 -25 11 -4 18 -11 14 -16 -3 -6 0 -16 6 -24 18 -21 -2
-19 -45 5 -20 11 -44 20 -54 20 -10 0 -21 7 -25 15 -3 8 -12 12 -21 9 -11 -4
-14 -2 -9 9 11 31 64 31 64 0 0 -8 7 -13 17 -11 29 5 25 25 -7 31 -16 4 -30
11 -30 17 0 15 47 12 53 -4z m1412 -6 c4 -6 -5 -10 -20 -10 -15 0 -24 4 -20
10 3 6 12 10 20 10 8 0 17 -4 20 -10z m-1321 -15 c3 -9 0 -15 -9 -15 -8 0 -15
7 -15 15 0 8 4 15 9 15 5 0 11 -7 15 -15z m997 -12 c13 -16 12 -17 -3 -4 -17
13 -22 21 -14 21 2 0 10 -8 17 -17z m509 -4 c0 -14 -27 -10 -33 5 -4 10 0 12
14 9 10 -3 19 -9 19 -14z m180 -54 c0 -8 -7 -15 -15 -15 -26 0 -18 20 13 29 1
1 2 -6 2 -14z m89 -1 c26 -6 30 -10 25 -30 -7 -27 -3 -29 43 -12 26 10 36 9
45 -1 11 -10 9 -15 -7 -27 -18 -13 -20 -13 -23 0 -4 18 -20 20 -42 6 -15 -9
-16 -9 35 -25 21 -6 19 -32 -4 -45 -21 -11 -37 2 -26 20 3 6 -2 10 -13 10 -10
0 -22 3 -25 7 -4 3 -50 7 -103 8 -82 1 -99 4 -110 20 -19 26 -11 30 20 10 24
-16 46 -14 46 6 0 5 -6 9 -13 9 -8 0 -14 7 -14 15 0 26 25 16 39 -15 13 -30
31 -39 43 -21 3 6 -3 15 -12 21 -16 10 -15 10 4 5 18 -5 25 -1 35 19 12 29 12
29 57 20z m-204 -23 c-3 -6 -11 -11 -17 -11 -6 0 -6 6 2 15 14 17 26 13 15 -4z
m300 9 c3 -5 -1 -10 -9 -10 -9 0 -16 5 -16 10 0 6 4 10 9 10 6 0 13 -4 16 -10z
m-820 -10 c3 -5 1 -10 -4 -10 -6 0 -11 5 -11 10 0 6 2 10 4 10 3 0 8 -4 11
-10z m475 0 c0 -5 -2 -10 -4 -10 -3 0 -8 5 -11 10 -3 6 -1 10 4 10 6 0 11 -4
11 -10z m-1477 -11 c13 5 28 6 33 1 5 -4 18 -10 29 -12 11 -3 -6 -4 -38 -3
-34 1 -63 8 -70 15 -10 12 -9 12 4 2 12 -9 24 -10 42 -3z m67 -57 c0 -8 -110
-5 -119 3 -2 3 23 5 57 5 34 0 62 -3 62 -8z m650 -11 c0 -5 10 -12 23 -14 21
-4 21 -4 1 -6 -12 0 -27 6 -34 14 -9 10 -9 15 -1 15 6 0 11 -4 11 -9z m2340
-7 c0 -8 -4 -12 -10 -9 -5 3 -10 10 -10 16 0 5 5 9 10 9 6 0 10 -7 10 -16z
m-2843 -10 c-3 -3 -12 -4 -19 -1 -8 3 -5 6 6 6 11 1 17 -2 13 -5z m1306 -8 c9
10 127 12 133 3 6 -11 -40 -22 -85 -21 -20 1 -61 2 -91 3 l-55 1 35 12 c19 7
40 9 46 4 6 -4 14 -5 17 -2z m207 -12 c0 -11 -7 -13 -27 -8 -36 9 -40 13 -24
23 18 12 51 2 51 -15z m-1715 6 c3 -5 1 -10 -4 -10 -6 0 -11 5 -11 10 0 6 2
10 4 10 3 0 8 -4 11 -10z m365 -12 c0 -5 -9 -4 -20 2 -11 6 -20 12 -20 14 0 2
9 2 20 -1 11 -3 20 -9 20 -15z m955 4 c-3 -3 -11 0 -18 7 -9 10 -8 11 6 5 10
-3 15 -9 12 -12z m80 8 c3 -5 -3 -10 -15 -10 -12 0 -18 5 -15 10 3 6 10 10 15
10 5 0 12 -4 15 -10z m1175 -50 c0 -7 -24 -20 -36 -20 -2 0 -4 9 -4 19 0 14 5
18 20 14 11 -3 20 -9 20 -13z m-897 -6 c27 -8 20 -27 -7 -20 -14 3 -27 2 -30
-2 -5 -8 -79 -6 -103 3 -7 2 -19 -5 -26 -16 -14 -19 -15 -19 -19 -1 -5 16 -13
19 -47 17 -23 -1 -39 1 -34 6 13 12 229 23 266 13z m-1666 -21 c-11 -10 -58
-13 -52 -2 4 5 18 9 32 9 15 0 23 -3 20 -7z m48 -3 c-3 -5 -11 -10 -16 -10 -6
0 -7 5 -4 10 3 6 11 10 16 10 6 0 7 -4 4 -10z m2643 -17 c-10 -2 -26 -2 -35 0
-10 3 -2 5 17 5 19 0 27 -2 18 -5z m-2354 -15 c-3 -4 -9 -8 -15 -8 -5 0 -9 4
-9 8 0 5 7 9 15 9 8 0 12 -4 9 -9z m1121 -16 c5 -12 13 -22 17 -22 5 0 8 -5 8
-11 0 -8 -5 -8 -15 1 -8 7 -15 18 -15 26 0 7 -8 18 -17 24 -12 8 -13 10 -3 7
8 -2 19 -13 25 -25z m166 18 c10 0 19 -4 19 -9 0 -4 -10 -7 -22 -6 -13 1 -29
3 -35 4 -7 0 -13 6 -13 12 0 6 7 8 16 5 9 -3 24 -6 35 -6z m-71 -10 c12 -8 11
-10 -7 -10 -14 0 -23 -6 -23 -15 0 -8 -5 -15 -10 -15 -13 0 -9 32 5 42 13 10
17 10 35 -2z m1056 -27 c-11 -11 -19 6 -11 24 8 17 8 17 12 0 3 -10 2 -21 -1
-24z m-3345 7 c21 -19 22 -20 2 -9 -17 10 -24 10 -36 0 -13 -10 -15 -9 -10 8
7 26 15 26 44 1z m706 0 c1 -16 -4 -20 -25 -19 -17 1 -21 3 -9 6 9 2 17 11 17
19 0 22 16 17 17 -6z m1789 -5 c-4 -10 2 -19 17 -25 12 -5 16 -9 10 -9 -7 -1
-13 -7 -13 -15 0 -15 -29 -30 -39 -20 -3 4 0 9 7 11 6 3 12 9 12 14 0 5 -6 9
-12 9 -7 0 -14 11 -14 25 -2 19 3 25 18 25 14 0 18 -5 14 -15z m178 6 c6 -10
-39 -32 -48 -24 -11 11 -6 21 12 26 28 8 31 7 36 -2z m806 -11 c0 -19 -11 -26
-23 -14 -8 8 3 34 14 34 5 0 9 -9 9 -20z m-3546 2 c-6 -4 -14 -15 -17 -26 -6
-15 -10 -16 -22 -6 -20 16 -19 28 3 33 29 8 48 7 36 -1z m2376 -13 c0 -5 -7
-9 -15 -9 -9 0 -12 6 -9 15 6 15 24 11 24 -6z m1273 14 c-7 -2 -19 -2 -25 0
-7 3 -2 5 12 5 14 0 19 -2 13 -5z m-2943 -28 c0 -24 2 -25 53 -21 28 2 67 10
85 16 18 7 36 10 39 6 3 -3 -8 -9 -25 -12 -18 -4 -32 -10 -32 -14 0 -20 -176
-18 -196 3 -14 14 8 21 27 9 25 -16 42 -6 34 19 -4 11 -2 19 4 19 6 0 11 -11
11 -25z m1030 -12 c0 -5 -14 -16 -32 -26 -30 -17 -31 -17 -17 0 23 30 49 43
49 26z m495 -3 c3 -5 1 -10 -4 -10 -6 0 -11 5 -11 10 0 6 2 10 4 10 3 0 8 -4
11 -10z m60 0 c3 -5 12 -7 20 -3 8 3 15 0 15 -7 0 -15 -52 -9 -58 8 -4 14 14
17 23 2z m453 -21 c-16 -10 -10 -16 26 -25 21 -5 27 -4 22 5 -4 6 -3 11 3 11
20 0 20 -17 0 -31 -12 -8 -27 -26 -35 -41 -11 -21 -22 -28 -43 -28 -16 0 -31
-5 -33 -11 -3 -9 -10 -9 -27 0 -14 8 -37 10 -57 6 -27 -5 -34 -3 -34 10 0 9 6
18 14 21 8 3 17 12 20 20 4 12 2 12 -14 4 -28 -15 -25 2 5 30 16 15 25 19 25
10 0 -9 6 -8 20 5 28 25 37 12 11 -16 -26 -28 -27 -41 -3 -32 29 10 43 26 38
40 -4 11 0 13 15 8 19 -6 21 -4 15 19 -6 25 -5 25 19 14 18 -8 22 -14 13 -19z
m934 9 c-7 -7 -12 -8 -12 -2 0 14 12 26 19 19 2 -3 -1 -11 -7 -17z m107 6 c10
-9 -35 -3 -49 6 -11 8 -7 9 15 4 17 -4 32 -8 34 -10z m-1356 -11 c-3 -7 2 -13
12 -13 9 0 13 -4 10 -10 -4 -6 -15 -4 -30 6 -14 9 -31 14 -39 11 -8 -3 -20 0
-26 8 -9 11 -3 13 33 12 31 -1 43 -6 40 -14z m484 11 c-3 -3 -12 -4 -19 -1 -8
3 -5 6 6 6 11 1 17 -2 13 -5z m-1599 -34 c13 -16 20 -30 17 -30 -9 0 -55 43
-55 52 0 17 17 7 38 -22z m2572 4 c0 -2 -9 -4 -20 -4 -11 0 -20 4 -20 9 0 5 9
7 20 4 11 -3 20 -7 20 -9z m-1730 -30 c0 -8 -5 -14 -11 -14 -5 0 -7 5 -4 10 4
6 1 19 -7 28 -12 15 -11 16 5 3 9 -7 17 -20 17 -27z m-505 16 c-3 -5 -10 -10
-16 -10 -5 0 -9 5 -9 10 0 6 7 10 16 10 8 0 12 -4 9 -10z m608 -10 c20 -1 20
-2 4 -11 -13 -7 -21 -6 -32 4 -8 8 -11 18 -7 21 4 4 8 2 10 -3 2 -6 13 -11 25
-11z m657 16 c0 -3 -4 -8 -10 -11 -5 -3 -10 -1 -10 4 0 6 5 11 10 11 6 0 10
-2 10 -4z m260 -22 c0 -16 -18 -18 -40 -4 -13 8 -12 10 3 10 9 0 17 5 17 11 0
5 5 7 10 4 6 -3 10 -13 10 -21z m-2762 4 c-7 -19 -38 -22 -38 -4 0 10 9 16 21
16 12 0 19 -5 17 -12z m195 -17 c6 -23 0 -31 -24 -31 -10 0 -25 -7 -34 -16
-22 -22 -5 -40 24 -25 17 10 23 8 37 -14 17 -27 34 -33 34 -12 0 6 14 13 30
14 17 1 30 -2 30 -7 0 -6 -6 -10 -13 -10 -37 0 -104 -50 -93 -69 3 -5 -2 -7
-11 -5 -10 2 -40 -9 -68 -24 -43 -24 -50 -32 -50 -57 0 -32 -15 -46 -25 -23
-3 7 -18 13 -35 13 -27 0 -30 3 -27 30 2 17 4 45 4 63 1 31 3 32 30 27 17 -4
35 -2 44 6 13 10 17 10 23 0 7 -10 13 -11 31 -1 12 6 25 9 28 5 3 -3 -4 -8
-16 -12 -27 -7 -29 -23 -3 -23 24 0 43 23 36 42 -5 12 0 14 20 10 22 -4 26 -2
23 14 -2 11 -10 17 -19 15 -8 -2 -22 -4 -31 -5 -10 0 -18 -4 -18 -9 0 -4 -4
-5 -10 -2 -5 3 -19 1 -31 -6 -19 -10 -21 -9 -16 6 4 9 7 21 7 27 0 7 5 6 14
-1 10 -8 16 -9 21 -1 3 5 -5 14 -19 20 -32 12 -34 45 -5 61 17 9 23 8 30 -2 6
-11 11 -11 20 -2 6 6 18 9 25 6 8 -3 14 0 14 6 0 19 17 12 23 -8z m238 -7
c-28 -8 -55 -13 -59 -13 -4 1 -9 1 -12 0 -3 -1 -22 -4 -43 -6 -21 -2 -52 -11
-69 -20 -17 -8 -32 -15 -32 -15 -1 0 -1 11 -1 25 0 24 6 29 33 26 8 -1 21 4
29 11 13 10 17 10 20 0 3 -6 10 -9 16 -5 7 4 25 6 42 5 16 -1 44 1 60 6 17 5
39 6 49 4 13 -4 2 -10 -33 -18z m1355 6 c0 -11 -6 -20 -12 -20 -7 0 -10 8 -7
20 3 11 8 20 12 20 4 0 7 -9 7 -20z m204 8 c0 -5 -5 -8 -11 -8 -6 0 -18 -7
-26 -16 -9 -8 -19 -11 -22 -7 -3 5 -14 12 -23 16 -33 12 -18 22 32 22 28 0 50
-3 50 -7z m130 2 c0 -5 -4 -10 -10 -10 -5 0 -10 5 -10 10 0 6 5 10 10 10 6 0
10 -4 10 -10z m-100 -9 c0 -5 -7 -14 -15 -21 -16 -14 -18 -10 -9 14 6 17 24
22 24 7z m-2815 -21 c-3 -5 -16 -10 -28 -10 -18 0 -19 2 -7 10 20 13 43 13 35
0z m1535 6 c0 -3 -4 -8 -10 -11 -5 -3 -10 -1 -10 4 0 6 5 11 10 11 6 0 10 -2
10 -4z m414 -15 c4 -5 -3 -7 -14 -4 -23 6 -26 13 -6 13 8 0 17 -4 20 -9z m676
5 c0 -2 -7 -6 -15 -10 -8 -3 -15 -1 -15 4 0 6 7 10 15 10 8 0 15 -2 15 -4z
m229 -13 c-27 -34 -64 -47 -53 -19 5 12 37 30 63 35 2 1 -3 -7 -10 -16z m502
-21 c-16 -5 -41 5 -41 17 0 7 10 6 26 -1 15 -7 21 -14 15 -16z m779 19 c0 -5
-9 -7 -20 -4 -11 3 -20 7 -20 9 0 2 9 4 20 4 11 0 20 -4 20 -9z m-2950 -21
c-8 -6 -22 -10 -30 -10 -8 0 -4 6 10 13 27 15 44 12 20 -3z m1521 10 c5 0 9
-4 9 -10 0 -16 -26 -12 -41 7 -12 15 -12 16 4 10 10 -4 23 -7 28 -7z m879 -10
c0 -5 -6 -10 -14 -10 -8 0 -18 5 -21 10 -3 6 3 10 14 10 12 0 21 -4 21 -10z
m-920 -42 c0 -13 -25 2 -38 23 -13 21 -13 21 12 3 14 -11 26 -22 26 -26z
m-290 12 c0 -6 6 -10 13 -9 27 3 56 -14 61 -37 4 -15 14 -24 25 -24 11 0 21
-9 25 -22 4 -17 8 -20 17 -11 14 14 39 -6 39 -32 0 -9 5 -13 10 -10 6 3 10 -2
11 -12 0 -16 1 -16 9 2 12 28 12 37 0 30 -21 -13 -3 36 19 51 21 15 24 15 37
-4 8 -12 21 -19 29 -16 8 4 15 1 15 -5 0 -6 3 -10 8 -10 22 4 31 -4 41 -33 9
-26 14 -30 21 -18 14 23 12 40 -6 40 -8 0 -13 4 -10 9 8 13 -19 32 -36 26 -9
-4 -18 1 -22 11 -9 24 1 30 24 16 25 -15 30 -15 30 1 0 7 -15 21 -32 30 l-33
16 28 0 c15 1 27 -4 27 -9 0 -12 48 -34 67 -31 24 3 53 -55 53 -107 0 -43 -4
-52 -26 -67 -15 -9 -37 -15 -51 -12 -13 2 -30 -2 -39 -10 -8 -8 -22 -12 -34
-8 -15 5 -18 3 -14 -9 3 -9 10 -16 14 -16 21 0 40 -34 40 -70 0 -66 17 -88
100 -130 41 -21 82 -46 91 -56 19 -22 33 -58 20 -49 -9 5 -20 -4 -53 -44 -10
-11 -28 -22 -40 -22 -42 -2 -48 -4 -45 -14 1 -5 16 -9 32 -8 17 1 24 -1 18 -3
-15 -7 -17 -34 -3 -34 14 0 84 49 93 65 4 8 14 12 22 9 21 -8 19 -26 -2 -22
-10 2 -19 -4 -21 -14 -2 -12 3 -18 13 -18 9 0 30 -12 45 -27 16 -16 43 -40 62
-55 43 -34 98 -84 75 -68 -29 21 -31 3 -2 -25 14 -15 25 -29 23 -31 -2 -2 -21
1 -41 7 -52 14 -62 4 -33 -34 26 -36 25 -57 -4 -50 -12 3 -20 0 -20 -7 0 -6
-42 11 -94 39 -51 28 -96 47 -100 44 -3 -3 -6 -15 -6 -25 0 -15 -5 -18 -21
-13 -18 6 -19 5 -10 -14 13 -23 22 -129 14 -159 -3 -15 -12 -21 -27 -19 -22 2
-25 -11 -10 -47 6 -17 4 -18 -17 -12 -13 4 -30 8 -36 8 -9 1 -10 5 -2 14 7 8
7 14 -1 19 -6 3 -8 10 -5 15 5 9 -25 23 -33 15 -3 -2 1 -11 7 -19 9 -10 9 -16
1 -21 -6 -4 -17 1 -24 11 -16 22 -46 27 -46 8 0 -21 -28 -17 -35 6 -9 27 -25
25 -25 -2 0 -19 -2 -20 -10 -8 -5 8 -10 29 -10 47 0 17 -4 35 -10 38 -16 10
-12 23 10 30 17 5 19 12 14 45 -6 36 -5 38 15 33 12 -3 28 0 37 8 8 7 14 8 13
3 -6 -32 2 -46 23 -41 12 4 28 1 35 -5 23 -19 15 21 -10 45 -12 13 -21 31 -19
40 2 10 -2 25 -9 33 -12 14 -14 14 -20 -3 -7 -16 -8 -15 -8 5 -1 16 5 22 19
22 11 0 20 -7 20 -15 0 -9 6 -18 14 -21 8 -3 12 -13 9 -25 -6 -21 -3 -22 21
-13 20 8 21 30 1 38 -8 3 -15 12 -15 21 0 8 -4 15 -10 15 -5 0 -10 6 -10 14 0
7 -7 19 -15 26 -8 7 -15 20 -15 30 0 10 -7 23 -15 30 -13 10 -15 9 -15 -10 0
-13 7 -32 17 -42 17 -19 5 -26 -14 -7 -7 7 -12 2 -17 -17 -5 -20 -10 -24 -16
-15 -4 8 -2 28 7 49 15 35 12 62 -7 62 -5 0 -10 -7 -10 -16 0 -8 -4 -13 -9
-10 -4 3 -6 16 -4 29 4 19 10 23 29 19 27 -5 32 9 10 27 -10 8 -16 9 -21 1 -3
-6 -11 -7 -17 -4 -7 4 -6 9 1 14 7 3 9 14 5 23 -10 28 -24 19 -24 -15 0 -23
-3 -29 -11 -21 -15 15 -1 73 17 73 8 0 14 7 14 15 0 18 -24 20 -42 3 -7 -7
-19 -14 -27 -16 -7 -1 -20 -9 -28 -17 -12 -13 -17 -13 -39 1 -24 17 -24 17 -4
31 11 8 28 13 37 11 12 -2 19 4 21 20 2 12 8 22 13 22 6 0 7 -9 4 -20 -5 -14
-2 -20 10 -20 9 0 13 5 9 11 -3 6 0 15 7 20 8 5 16 3 21 -4 4 -6 10 -8 14 -4
5 4 -2 18 -14 30 -19 19 -24 20 -32 7 -8 -12 -10 -11 -10 7 0 12 -3 30 -7 40
-4 13 0 11 15 -7 18 -21 23 -23 32 -10 5 8 10 26 11 40 1 14 3 31 3 39 1 8 7
16 14 19 6 2 12 10 12 17 0 7 5 15 11 17 9 3 8 11 -1 28 l-14 25 -5 -23 -6
-24 -20 23 c-15 16 -16 21 -5 17 13 -5 16 3 17 36 0 31 -1 35 -6 16 -6 -22 -8
-23 -14 -7 -4 10 -2 27 3 37 7 14 6 23 -5 34 -8 8 -15 22 -15 31 0 11 -5 15
-14 12 -16 -7 -106 78 -106 99 0 7 -18 18 -40 24 -44 12 -62 30 -31 30 12 0
21 -5 21 -10z m-1160 -10 c0 -5 10 -10 23 -11 21 0 21 -1 2 -9 -25 -11 -41
-12 -32 -3 4 3 2 12 -4 20 -9 9 -8 13 0 13 6 0 11 -4 11 -10z m1354 4 c9 -3
13 -10 10 -15 -8 -14 -21 -11 -28 6 -6 17 -4 18 18 9z m-2664 -24 c0 -5 -5
-10 -11 -10 -5 0 -7 5 -4 10 3 6 8 10 11 10 2 0 4 -4 4 -10z m3490 6 c0 -3 -4
-8 -10 -11 -5 -3 -10 -1 -10 4 0 6 5 11 10 11 6 0 10 -2 10 -4z m-2319 -29
c-10 -9 -11 -8 -5 6 3 10 9 15 12 12 3 -3 0 -11 -7 -18z m2589 13 c12 -8 9
-10 -12 -10 -16 0 -28 5 -28 10 0 13 20 13 40 0z m-2635 -37 c-12 -18 -14 -28
-7 -31 7 -2 12 -8 12 -13 0 -6 -4 -8 -9 -4 -5 3 -12 1 -15 -4 -7 -11 -44 -3
-52 11 -3 5 6 6 21 2 20 -5 26 -3 24 7 -4 16 31 72 39 65 2 -3 -3 -18 -13 -33z
m2260 27 c3 -5 -1 -10 -9 -10 -9 0 -16 5 -16 10 0 6 4 10 9 10 6 0 13 -4 16
-10z m325 -16 c0 -2 -7 -4 -15 -4 -8 0 -15 4 -15 10 0 5 7 7 15 4 8 -4 15 -8
15 -10z m-2425 -4 c4 -6 -5 -10 -19 -10 -19 0 -26 -5 -26 -20 0 -11 -4 -20 -8
-20 -6 0 -8 42 -3 58 3 7 51 0 56 -8z m1190 -10 c3 -5 1 -10 -4 -10 -6 0 -11
5 -11 10 0 6 2 10 4 10 3 0 8 -4 11 -10z m580 0 c3 -5 -1 -10 -9 -10 -9 0 -16
5 -16 10 0 6 4 10 9 10 6 0 13 -4 16 -10z m-2835 -15 c0 -8 -4 -15 -10 -15 -5
0 -7 7 -4 15 4 8 8 15 10 15 2 0 4 -7 4 -15z m964 2 c11 -8 15 -19 10 -30 -5
-15 -8 -14 -25 7 -29 37 -21 49 15 23z m174 -1 c-10 -7 -18 -22 -18 -32 -1
-10 -12 -32 -25 -49 -21 -25 -23 -26 -18 -7 3 12 9 22 14 22 13 0 11 38 -2 46
-12 7 26 32 51 33 12 0 11 -2 -2 -13z m1029 -11 c24 -25 10 -32 -16 -7 -13 12
-19 22 -12 22 7 0 19 -7 28 -15z m-35 -42 c15 -15 28 -32 28 -39 0 -7 -16 4
-35 23 -19 19 -35 37 -35 39 0 11 16 2 42 -23z m227 -45 c34 -31 61 -61 61
-68 0 -7 -24 13 -54 44 -30 31 -59 56 -65 56 -5 0 -17 -15 -26 -32 -14 -29
-14 -34 0 -44 18 -13 20 -28 3 -21 -8 3 -14 -5 -14 -20 -2 -17 6 -28 27 -39
20 -10 32 -25 36 -45 4 -21 15 -34 37 -44 26 -11 28 -13 9 -14 -12 -1 -25 4
-28 9 -12 19 -38 11 -32 -10 7 -25 3 -25 -22 2 -18 19 -19 22 -5 33 24 17 14
59 -14 63 -20 3 -23 0 -18 -16 4 -11 0 -24 -9 -32 -8 -7 -12 -16 -9 -21 3 -5
-2 -9 -11 -9 -12 0 -15 6 -9 23 3 12 11 24 15 25 13 5 11 30 -3 36 -10 4 -10
7 -1 12 15 7 1 59 -18 60 -8 1 -19 2 -26 3 -7 0 -10 8 -6 17 4 11 9 12 16 5 6
-6 22 -11 35 -11 21 0 23 3 17 27 -6 24 -5 25 11 12 16 -13 17 -11 11 23 -10
64 1 61 92 -24z m-1294 52 c-3 -5 -13 -10 -21 -10 -8 0 -14 -6 -14 -13 0 -15
-36 -48 -44 -40 -11 11 -6 33 7 33 7 0 20 9 30 20 17 20 54 29 42 10z m-271
-21 c-3 -5 -10 -7 -15 -3 -5 3 -7 10 -3 15 3 5 10 7 15 3 5 -3 7 -10 3 -15z
m156 6 c0 -8 -9 -15 -20 -15 -11 0 -20 -4 -20 -10 0 -14 -49 -60 -64 -60 -7 0
-19 -11 -26 -25 -7 -14 -19 -25 -25 -25 -6 0 -21 -10 -32 -22 -12 -13 -33 -33
-48 -45 -26 -22 -26 -23 -9 -52 16 -27 16 -30 -3 -57 -11 -16 -18 -36 -15 -44
3 -12 2 -12 -8 -3 -18 17 -39 5 -33 -18 4 -15 0 -22 -15 -26 -11 -3 -23 -11
-26 -18 -2 -7 -18 -16 -35 -20 -37 -8 -47 -21 -31 -40 9 -11 9 -15 1 -15 -6 0
-11 -7 -11 -15 0 -8 -3 -14 -7 -14 -23 4 -39 -3 -50 -20 -10 -16 -9 -18 13
-18 16 0 24 5 24 16 0 10 9 17 22 18 11 1 24 7 28 13 4 7 11 11 16 11 21 -2
44 11 44 25 0 8 9 14 20 14 10 0 24 8 29 19 9 16 41 37 41 26 0 -2 -11 -16
-25 -31 -26 -28 -32 -44 -15 -44 6 0 10 -8 10 -17 1 -14 5 -12 21 10 11 15 25
25 30 21 9 -5 -42 -64 -55 -64 -4 0 -11 11 -16 25 -5 14 -14 25 -20 25 -15 0
-12 -16 5 -34 14 -14 11 -46 -5 -46 -4 0 -14 16 -22 35 -13 33 -15 34 -33 21
-20 -14 -19 -15 8 -43 l27 -29 -37 -25 c-26 -17 -38 -32 -37 -47 0 -17 -5 -22
-23 -22 -14 0 -21 4 -18 10 7 12 3 12 -19 4 -9 -3 -16 -15 -16 -26 0 -15 5
-19 20 -15 27 7 25 -7 -2 -26 -19 -13 -20 -16 -5 -16 9 -1 17 4 17 10 0 7 9 9
21 6 13 -4 26 1 37 14 9 10 22 19 29 19 20 0 15 17 -9 34 -20 14 -18 21 5 17
5 -1 11 8 14 19 3 12 14 20 27 20 24 1 56 22 56 38 0 5 14 15 30 21 17 5 30
14 29 18 -4 16 14 65 20 55 8 -13 51 4 51 20 0 10 2 10 9 -1 11 -16 31 -6 31
16 0 10 -6 13 -16 9 -12 -4 -15 -2 -10 9 6 18 2 19 -26 4 -11 -6 -22 -8 -25
-5 -7 6 40 26 77 32 42 8 50 13 44 29 -8 20 -23 19 -46 -2 -18 -16 -18 -16
-10 8 11 29 55 56 60 36 11 -38 12 -40 27 -27 8 7 15 9 15 4 0 -15 -36 -64
-59 -80 -28 -20 -27 -32 3 -27 17 4 28 16 36 36 17 50 60 88 60 53 0 -7 -8
-16 -19 -19 -14 -3 -18 -14 -18 -46 0 -46 12 -63 22 -30 5 16 13 20 33 16 14
-3 37 -1 51 5 24 8 24 7 -6 -21 -18 -16 -33 -38 -33 -48 -1 -17 -1 -17 -15 1
-16 21 -35 13 -35 -15 0 -22 38 -27 58 -7 18 18 52 20 52 4 0 -16 -27 -46 -41
-46 -5 0 -6 -12 -3 -27 7 -25 6 -27 -9 -15 -20 17 -37 8 -37 -19 0 -10 -5 -19
-11 -19 -6 0 -9 7 -5 15 7 18 -5 20 -22 3 -10 -10 -15 -10 -22 2 -8 13 -10 13
-10 -1 0 -25 47 -46 70 -31 24 14 30 15 30 3 0 -5 -9 -12 -19 -16 -24 -7 -17
-35 9 -35 12 0 20 10 24 33 9 47 34 81 51 67 9 -7 16 -6 25 4 14 18 4 40 -16
32 -8 -3 -14 1 -14 10 0 22 27 28 45 10 12 -12 13 -20 5 -35 -5 -11 -10 -30
-10 -42 0 -22 1 -22 14 -4 13 18 14 17 31 -9 16 -23 20 -25 27 -12 14 25 30
18 26 -11 -2 -23 -7 -28 -28 -25 -14 1 -33 4 -42 5 -10 0 -18 5 -18 9 0 4 -7
8 -15 8 -8 0 -15 -6 -15 -13 0 -17 41 -40 66 -36 10 2 25 0 32 -4 17 -11 29
-2 35 30 3 16 9 41 13 57 6 26 5 29 -15 23 -11 -3 -23 -1 -26 4 -8 12 19 59
50 88 29 27 28 46 -4 45 -18 0 -19 1 -7 15 7 9 16 31 18 49 4 26 1 32 -14 32
-14 0 -16 4 -9 18 5 9 13 26 17 37 6 18 8 18 11 3 5 -22 19 -23 27 -3 3 8 17
20 30 26 15 7 28 23 31 40 7 29 19 37 30 19 3 -5 1 -10 -4 -10 -6 0 -11 -7
-11 -15 0 -9 9 -15 25 -15 18 0 23 4 19 15 -4 8 -1 15 5 15 6 0 11 8 11 18 0
14 2 15 10 2 6 -9 6 -18 0 -24 -12 -12 -13 -46 -1 -46 5 0 14 7 21 15 7 8 21
15 32 15 13 0 25 14 37 43 21 47 19 57 -10 57 -10 0 -19 4 -19 8 0 4 16 8 36
8 35 0 35 0 29 -35 -4 -20 -12 -42 -17 -49 -8 -9 -6 -19 8 -35 30 -35 35 -36
59 -15 16 14 22 31 24 65 0 25 6 52 13 60 8 10 8 17 0 25 -16 16 -15 29 2 22
8 -3 16 2 20 13 2 10 4 -12 2 -50 -2 -37 -6 -70 -9 -74 -4 -3 -2 -12 5 -20 9
-11 7 -15 -10 -20 -20 -5 -26 -20 -25 -60 1 -8 -11 -13 -28 -13 -18 0 -29 5
-29 14 0 22 -27 26 -66 10 -24 -10 -34 -20 -30 -30 4 -9 -1 -14 -14 -14 -11 0
-20 -6 -20 -13 0 -14 -39 -41 -48 -33 -3 3 3 15 13 26 14 15 16 23 7 32 -16
16 -42 -8 -42 -38 0 -18 -6 -24 -22 -24 -13 0 -30 -4 -38 -10 -9 -6 -17 -5
-22 3 -11 17 -10 -26 1 -56 5 -13 23 -30 41 -37 19 -8 29 -18 26 -27 -6 -15
13 -63 25 -63 4 0 10 8 14 19 5 16 45 61 45 50 0 -2 -6 -24 -13 -48 -10 -32
-11 -54 -3 -82 7 -29 7 -42 -2 -51 -9 -9 -12 -7 -12 11 0 12 -4 19 -10 16 -5
-3 -10 -17 -10 -31 0 -13 -4 -24 -10 -24 -5 0 -7 -7 -3 -16 5 -13 16 -15 51
-11 36 4 56 0 96 -22 28 -14 53 -30 55 -35 2 -4 12 -16 24 -25 11 -9 31 -26
46 -39 l26 -22 -30 6 c-16 4 -42 17 -57 29 -38 32 -107 63 -148 67 -28 2 -37
-1 -45 -19 -5 -13 -13 -23 -17 -23 -5 0 -8 -11 -8 -25 0 -34 -15 -31 -30 6
-12 29 -16 31 -51 26 -20 -3 -42 0 -48 6 -6 6 -11 7 -11 2 0 -6 -4 -36 -10
-68 -5 -32 -7 -64 -3 -72 7 -19 32 -19 39 0 4 8 10 15 15 15 16 0 9 -22 -14
-44 -13 -12 -27 -30 -32 -41 -8 -20 -8 -20 -13 0 -2 11 -13 39 -23 62 -10 23
-19 47 -19 53 0 21 -25 4 -28 -18 -2 -12 -7 -20 -12 -17 -5 3 -12 -7 -15 -22
-3 -15 -10 -42 -14 -60 -6 -23 -5 -38 6 -52 13 -19 12 -22 -2 -27 -8 -4 -22
-1 -29 5 -17 14 -31 -2 -22 -25 3 -9 1 -12 -4 -9 -6 3 -10 -3 -10 -14 0 -15 7
-21 23 -21 18 0 19 -2 7 -10 -8 -5 -23 -10 -32 -10 -15 0 -18 9 -18 56 0 30 5
64 10 74 7 13 7 21 0 25 -5 3 -10 1 -10 -4 0 -18 0 -19 -16 -56 -8 -19 -14
-38 -14 -42 0 -5 -3 -23 -6 -40 -7 -39 -24 -44 -24 -8 0 28 -20 35 -20 8 -1
-38 -30 20 -30 59 0 21 -5 38 -11 38 -7 0 -8 11 -4 29 8 39 -13 52 -34 21 -9
-13 -24 -33 -34 -44 -18 -20 -18 -20 -1 11 21 37 16 46 -18 38 -14 -4 -38 -27
-58 -58 -18 -28 -35 -46 -37 -40 -5 14 57 135 74 146 14 9 18 37 5 37 -4 0
-13 -5 -20 -12 -9 -9 -15 -8 -26 7 -16 22 -11 39 10 31 10 -4 12 2 7 26 -4 20
-3 29 4 25 13 -8 27 56 18 84 -4 12 2 34 14 55 25 43 25 41 2 53 -15 8 -34 4
-83 -18 -35 -16 -70 -36 -77 -45 -14 -16 -15 -16 66 -17 41 0 42 -1 51 -42 11
-51 4 -68 -16 -39 -8 12 -20 22 -27 22 -7 0 -18 7 -25 15 -7 8 -28 17 -47 21
-27 5 -39 2 -59 -17 -13 -12 -24 -30 -24 -38 0 -14 -2 -14 -10 -1 -7 12 -12
12 -22 2 -17 -17 -38 -15 -38 3 0 14 -3 14 -23 0 -13 -8 -29 -26 -35 -40 -12
-26 -42 -35 -42 -12 0 7 -6 25 -12 40 -10 20 -20 27 -40 27 -43 0 -36 35 20
99 27 31 51 64 55 74 5 13 13 17 28 12 14 -5 19 -3 15 3 -3 6 -1 12 6 14 12 4
3 28 -12 28 -5 0 -16 -7 -24 -16 -15 -14 -16 -14 -16 4 0 36 21 81 35 75 20
-7 31 43 18 78 -12 31 -5 41 34 53 23 7 73 60 73 78 0 10 -21 8 -85 -8 l-27
-7 17 27 c10 15 15 29 12 33 -4 3 1 12 10 18 9 7 17 25 18 40 0 17 6 29 15 31
8 2 25 6 37 9 16 5 26 0 39 -20 15 -23 15 -28 3 -36 -11 -7 -8 -9 10 -9 19 0
22 4 18 21 -5 17 -2 20 13 16 31 -8 44 7 30 34 -10 20 -10 22 1 12 19 -18 25
-17 59 17 17 17 35 30 39 30 5 0 16 11 25 25 9 14 22 25 29 25 6 1 30 21 52
45 41 46 65 57 65 30z m-100 -10 c0 -8 -6 -15 -14 -15 -8 0 -16 7 -20 15 -4
10 1 15 14 15 11 0 20 -7 20 -15z m370 -4 c0 -6 -4 -13 -10 -16 -5 -3 -10 1
-10 9 0 9 5 16 10 16 6 0 10 -4 10 -9z m68 -31 c-12 -22 -30 -49 -40 -60 -10
-10 -18 -28 -18 -40 0 -11 -7 -20 -15 -20 -9 0 -18 -7 -21 -15 -4 -8 -10 -15
-16 -15 -5 0 -1 14 9 30 9 17 20 30 24 30 4 0 10 13 14 30 4 16 11 28 17 27 5
-1 19 15 30 36 11 20 24 37 28 37 5 0 -1 -18 -12 -40z m195 20 c-3 -11 -10
-23 -16 -27 -7 -4 -8 0 -4 11 4 10 7 22 7 27 0 5 4 9 9 9 5 0 7 -9 4 -20z
m117 5 c0 -8 -4 -15 -10 -15 -5 0 -7 7 -4 15 4 8 8 15 10 15 2 0 4 -7 4 -15z
m620 -5 c0 -5 -4 -10 -10 -10 -5 0 -10 5 -10 10 0 6 5 10 10 10 6 0 10 -4 10
-10z m-228 -62 c10 -10 22 -18 27 -18 24 0 18 -20 -10 -34 -28 -14 -30 -14
-18 0 11 13 10 19 -9 33 -25 18 -53 66 -44 75 3 3 12 -4 20 -16 9 -12 24 -30
34 -40z m113 52 c3 -5 -1 -10 -10 -10 -9 0 -13 5 -10 10 3 6 8 10 10 10 2 0 7
-4 10 -10z m-931 -27 c8 -19 -1 -33 -20 -33 -8 0 -14 -8 -14 -17 -1 -21 -38
-69 -46 -60 -8 8 6 47 17 47 5 0 9 9 9 20 0 12 7 20 16 20 12 0 15 7 12 24 -5
27 16 26 26 -1z m669 -21 c-7 -16 -9 -14 -17 23 -7 28 -6 29 7 10 8 -10 12
-25 10 -33z m-1043 13 c-7 -9 -15 -13 -18 -10 -3 2 1 11 8 20 7 9 15 13 18 10
3 -2 -1 -11 -8 -20z m620 15 c0 -5 -4 -10 -10 -10 -5 0 -10 5 -10 10 0 6 5 10
10 10 6 0 10 -4 10 -10z m121 -21 c-9 -22 -10 -22 -10 -3 -1 11 2 24 6 27 12
12 14 0 4 -24z m799 11 c0 -5 -7 -7 -15 -4 -8 4 -12 10 -9 15 6 11 24 2 24
-11z m-1820 0 c0 -5 -4 -10 -10 -10 -5 0 -10 5 -10 10 0 6 5 10 10 10 6 0 10
-4 10 -10z m235 -4 c12 -11 12 -16 0 -32 -7 -11 -17 -16 -21 -11 -4 4 -2 7 4
7 7 0 12 7 12 15 0 8 -4 15 -10 15 -5 0 -10 5 -10 10 0 14 9 12 25 -4z m345 4
c0 -10 -48 -60 -57 -60 -2 0 1 9 7 20 6 11 15 20 20 20 6 0 10 7 10 15 0 8 5
15 10 15 6 0 10 -5 10 -10z m990 0 c0 -5 -4 -10 -10 -10 -5 0 -10 5 -10 10 0
6 5 10 10 10 6 0 10 -4 10 -10z m-1110 -15 c0 -18 -74 -55 -90 -45 -7 4 3 16
27 33 43 30 63 33 63 12z m70 -4 c0 -4 -11 -13 -25 -19 -14 -6 -25 -18 -25
-27 0 -8 -4 -15 -10 -15 -17 0 -11 19 17 49 25 27 43 32 43 12z m410 15 c0 -3
-4 -8 -10 -11 -5 -3 -10 -1 -10 4 0 6 5 11 10 11 6 0 10 -2 10 -4z m344 -56
c4 -24 3 -28 -2 -15 -14 31 -24 83 -13 65 5 -8 11 -31 15 -50z m256 50 c0 -5
-2 -10 -4 -10 -3 0 -8 5 -11 10 -3 6 -1 10 4 10 6 0 11 -4 11 -10z m1235 0 c3
-5 -1 -10 -10 -10 -9 0 -13 5 -10 10 3 6 8 10 10 10 2 0 7 -4 10 -10z m-1702
-20 c-6 -24 -23 -37 -23 -18 0 12 18 38 26 38 1 0 0 -9 -3 -20z m1247 10 c0
-5 -8 -10 -17 -10 -15 0 -16 2 -3 10 19 12 20 12 20 0z m-1498 -22 c-7 -7 -12
-8 -12 -2 0 14 12 26 19 19 2 -3 -1 -11 -7 -17z m55 -15 c-3 -3 -11 -2 -17 2
-8 5 -7 11 2 22 12 15 13 14 16 -1 2 -10 1 -20 -1 -23z m-93 2 c-9 -14 -19
-23 -22 -20 -5 4 26 45 35 45 2 0 -4 -11 -13 -25z m426 10 c0 -8 -4 -15 -10
-15 -5 0 -7 7 -4 15 4 8 8 15 10 15 2 0 4 -7 4 -15z m-261 -11 c-10 -13 -10
-17 0 -24 10 -6 10 -9 1 -15 -6 -4 -9 -13 -6 -20 8 -22 -5 -24 -25 -4 -10 10
-16 25 -14 34 3 8 7 22 10 30 2 8 14 15 26 15 18 0 20 -2 8 -16z m415 -46 c8
-5 7 -8 -1 -8 -18 0 -46 47 -37 62 5 8 11 2 17 -17 6 -17 15 -33 21 -37z m51
51 c10 -15 -1 -23 -20 -15 -9 3 -13 10 -10 16 8 13 22 13 30 -1z m195 1 c0 -5
-2 -10 -4 -10 -3 0 -8 5 -11 10 -3 6 -1 10 4 10 6 0 11 -4 11 -10z m55 -30 c0
-15 -5 -26 -11 -23 -6 2 -8 17 -6 34 5 36 17 29 17 -11z m192 20 c3 -11 11
-20 19 -20 17 0 45 -40 37 -54 -4 -6 -10 0 -13 14 -3 15 -15 26 -29 30 -13 3
-30 15 -39 28 -13 20 -13 22 3 22 9 0 19 -9 22 -20z m-625 -47 c-24 -20 -37
-15 -19 5 10 10 17 25 18 33 0 8 4 6 9 -6 5 -14 3 -24 -8 -32z m602 16 c10
-17 15 -33 12 -36 -10 -10 -46 29 -46 49 0 27 13 22 34 -13z m-1484 1 c-11
-21 -44 -27 -55 -10 -3 6 3 10 14 10 11 0 23 5 26 10 12 20 26 10 15 -10z
m162 -21 c-25 -23 -32 -24 -32 -4 0 8 7 15 15 15 9 0 19 8 22 17 5 12 8 13 11
4 2 -7 -5 -21 -16 -32z m1062 11 c-15 -14 -74 -23 -74 -11 0 6 7 8 15 5 8 -4
15 -1 15 5 0 6 9 11 20 11 11 0 20 6 21 13 0 9 2 8 6 -1 3 -8 1 -17 -3 -22z
m-727 0 c4 -16 8 -18 19 -9 20 16 25 8 11 -17 -12 -21 -13 -21 -43 12 -27 30
-29 34 -12 34 12 0 22 -9 25 -20z m-424 -25 c-10 -13 -20 -21 -22 -19 -8 7 22
53 31 48 4 -3 0 -16 -9 -29z m332 16 c-3 -6 -14 -11 -23 -11 -15 1 -15 2 2 15
21 16 32 13 21 -4z m1417 -16 c-11 -21 -25 -4 -16 20 4 10 10 13 16 7 7 -7 7
-16 0 -27z m-742 15 c0 -5 -4 -10 -10 -10 -5 0 -10 5 -10 10 0 6 5 10 10 10 6
0 10 -4 10 -10z m1234 -2 c-7 -18 -118 -83 -195 -114 -36 -15 -84 -26 -110
-26 -52 0 -109 25 -109 48 0 10 4 12 13 7 22 -14 208 -12 214 3 2 7 17 12 31
12 27 -1 86 28 131 63 28 22 32 23 25 7z m-1864 -2 c0 -3 -4 -8 -10 -11 -5 -3
-10 -1 -10 4 0 6 5 11 10 11 6 0 10 -2 10 -4z m840 -6 c0 -5 -4 -10 -10 -10
-5 0 -10 5 -10 10 0 6 5 10 10 10 6 0 10 -4 10 -10z m-240 -10 c0 -5 7 -10 15
-10 8 0 15 -5 15 -11 0 -6 7 -18 16 -26 12 -13 13 -17 2 -24 -10 -6 -10 -11
-1 -20 16 -16 19 -12 27 28 6 26 4 34 -13 43 -12 6 -21 15 -21 20 0 18 23 10
47 -17 l25 -26 19 24 18 24 9 -25 c6 -15 6 -30 1 -36 -11 -13 15 -39 29 -30
12 7 12 55 1 62 -15 9 -10 24 7 24 9 0 18 -9 21 -19 3 -11 15 -21 26 -23 12
-2 24 -13 27 -25 3 -13 12 -31 21 -41 8 -10 13 -24 11 -32 -3 -7 3 -19 13 -26
11 -8 16 -21 12 -34 -3 -11 1 -27 9 -35 9 -8 10 -16 4 -20 -16 -10 -12 -55 6
-55 8 0 12 4 9 10 -11 17 39 6 53 -12 24 -32 78 -2 57 32 -3 5 -2 10 3 10 13
0 22 -25 22 -64 0 -18 3 -36 8 -41 4 -6 3 -7 -2 -2 -16 11 -26 8 -26 -8 0 -18
-16 -20 -26 -3 -4 6 -2 14 4 16 17 5 15 29 -2 29 -22 0 -27 -40 -12 -83 8 -22
15 -31 15 -20 1 27 14 11 16 -19 0 -16 -3 -21 -9 -15 -18 18 -26 11 -32 -30
-7 -41 -24 -56 -24 -20 0 11 -6 20 -14 20 -24 0 -30 22 -11 37 11 7 13 13 7
13 -7 0 -12 9 -12 20 0 11 -7 20 -15 20 -18 0 -19 -4 -2 -31 10 -17 10 -23 0
-26 -7 -3 -13 -16 -13 -31 0 -49 -22 -152 -31 -146 -6 3 -7 14 -4 25 4 10 3
19 -2 19 -4 0 -14 9 -21 21 -11 18 -11 23 5 34 14 11 16 16 6 26 -22 22 -16
49 9 46 22 -2 23 1 21 73 -1 52 2 69 8 57 12 -20 48 -22 74 -4 15 12 16 15 4
23 -8 5 -30 9 -49 9 -28 0 -37 5 -48 28 -11 22 -11 31 -2 42 10 12 9 16 -5 21
-23 9 -43 -12 -27 -28 7 -7 11 -26 11 -42 -2 -31 -2 -31 -6 -3 -2 15 -11 27
-18 27 -9 0 -12 -6 -8 -17 5 -14 1 -13 -16 5 -12 12 -31 22 -43 22 -11 0 -31
12 -44 26 -20 20 -22 29 -13 45 13 26 9 30 -20 22 -15 -4 -20 -11 -16 -22 5
-14 4 -14 -11 1 -19 18 -10 42 13 34 10 -4 13 -2 10 8 -3 7 -1 18 4 23 6 6 4
15 -6 23 -13 11 -19 9 -40 -10 -14 -13 -27 -21 -30 -19 -2 3 -15 30 -29 61
-14 31 -30 59 -36 63 -6 3 -8 11 -5 16 8 12 25 12 25 -1z m-595 -28 c-3 -3
-11 0 -18 7 -9 10 -8 11 6 5 10 -3 15 -9 12 -12z m403 -4 c-2 -18 2 -23 18
-23 27 0 54 -23 54 -46 0 -25 -10 -24 -39 6 -13 14 -29 25 -37 25 -14 0 -20
41 -7 53 11 12 14 8 11 -15z m712 -37 c-1 -11 -9 -6 -25 14 -32 39 -32 55 0
25 14 -13 25 -31 25 -39z m-1160 45 c0 -3 -4 -8 -10 -11 -5 -3 -10 -1 -10 4 0
6 5 11 10 11 6 0 10 -2 10 -4z m600 -55 c0 -5 4 -11 8 -13 14 -6 54 -68 43
-68 -28 0 -60 20 -55 35 3 8 1 15 -5 15 -6 0 -11 -7 -11 -16 0 -11 -6 -13 -19
-9 -15 4 -24 -1 -35 -22 -12 -24 -15 -26 -21 -10 -9 23 12 47 41 47 28 0 29 6
8 48 -21 44 -8 61 22 28 13 -14 24 -29 24 -35z m-400 19 c0 -5 -4 -10 -9 -10
-6 0 -13 5 -16 10 -3 6 1 10 9 10 9 0 16 -4 16 -10z m80 -5 c7 -9 8 -15 2 -15
-5 0 -12 7 -16 15 -3 8 -4 15 -2 15 2 0 9 -7 16 -15z m-620 1 c0 -3 -4 -8 -10
-11 -5 -3 -10 -1 -10 4 0 6 5 11 10 11 6 0 10 -2 10 -4z m360 -3 c0 -5 -5 -15
-10 -23 -8 -12 -10 -11 -10 8 0 12 5 22 10 22 6 0 10 -3 10 -7z m-437 -18 c-3
-9 -8 -14 -10 -11 -3 3 -2 9 2 15 9 16 15 13 8 -4z m377 11 c0 -3 -4 -8 -10
-11 -5 -3 -10 -1 -10 4 0 6 5 11 10 11 6 0 10 -2 10 -4z m1034 -28 c6 -4 21
-8 34 -8 12 0 22 -5 22 -11 0 -6 7 -9 15 -5 9 3 15 0 15 -9 0 -19 -37 -19 -56
0 -9 8 -26 15 -38 15 -31 0 -37 9 -23 31 8 13 13 15 16 7 2 -7 9 -16 15 -20z
m-1304 -13 c-7 -8 -17 -15 -23 -15 -6 0 -2 8 9 19 22 21 33 19 14 -4z m764 9
c31 -30 13 -33 -24 -4 -19 15 -21 20 -8 20 9 0 24 -7 32 -16z m-994 -25 c0 -5
-4 -9 -10 -9 -5 0 -10 7 -10 16 0 8 5 12 10 9 6 -3 10 -10 10 -16z m110 14 c0
-8 -47 -33 -62 -33 -4 0 -8 5 -8 12 0 6 3 9 6 6 3 -4 17 0 32 8 31 16 32 16
32 7z m370 -8 c0 -3 -9 -14 -20 -25 -13 -13 -20 -15 -20 -7 0 7 5 18 12 25 12
12 28 16 28 7z m480 -5 c0 -5 -6 -10 -14 -10 -23 0 -41 -68 -21 -82 14 -10 0
-19 -18 -12 -9 3 -23 20 -32 37 -19 37 -19 41 -1 34 8 -3 16 -3 18 1 4 9 51
41 61 41 4 1 7 -3 7 -9z m-1270 -9 c0 -6 -4 -13 -10 -16 -5 -3 -10 1 -10 9 0
9 5 16 10 16 6 0 10 -4 10 -9z m1894 -35 c15 -1 32 -9 39 -16 10 -10 4 -11
-33 -6 -50 8 -66 18 -55 36 6 9 9 9 15 1 4 -7 19 -13 34 -15z m-1552 -8 c-7
-7 -12 -8 -12 -2 0 6 3 14 7 17 3 4 9 5 12 2 2 -3 -1 -11 -7 -17z m1158 2 c0
-5 -4 -10 -9 -10 -6 0 -13 5 -16 10 -3 6 1 10 9 10 9 0 16 -4 16 -10z m-736
-26 c-5 -20 -3 -25 9 -22 16 3 17 1 17 -26 0 -11 -5 -12 -25 -3 -19 10 -23 17
-18 37 7 28 12 40 19 40 2 0 1 -12 -2 -26z m536 16 c0 -5 -2 -10 -4 -10 -3 0
-8 5 -11 10 -3 6 -1 10 4 10 6 0 11 -4 11 -10z m-589 -44 c-6 -7 -9 -20 -5
-29 3 -10 -2 -20 -15 -27 -22 -11 -31 3 -10 16 6 3 9 20 7 36 -4 21 -1 27 9
24 7 -3 13 0 14 7 0 9 2 9 6 -1 3 -7 0 -19 -6 -26z m-1266 14 c3 -5 1 -10 -4
-10 -6 0 -11 5 -11 10 0 6 2 10 4 10 3 0 8 -4 11 -10z m1881 -9 c-3 -5 -15 -7
-26 -4 -28 7 -25 13 6 13 14 0 23 -4 20 -9z m169 -12 c-3 -4 -12 -6 -20 -3 -8
4 -13 10 -10 15 3 4 12 6 20 3 8 -4 13 -10 10 -15z m100 1 c3 -6 1 -10 -6 -10
-8 0 -8 -4 1 -15 10 -12 10 -15 0 -15 -14 0 -50 29 -50 39 0 11 49 11 55 1z
m51 -36 c31 -33 33 -74 3 -67 -19 5 -20 3 -14 -18 8 -26 8 -26 6 -53 -1 -15
-6 -17 -33 -12 -17 3 -37 15 -45 26 -8 11 -20 20 -28 20 -15 0 -30 34 -20 49
3 5 29 8 58 7 83 -4 96 8 55 51 -12 13 -18 23 -13 23 4 0 18 -11 31 -26z
m-1499 -6 c-3 -8 -6 -5 -6 6 -1 11 2 17 5 13 3 -3 4 -12 1 -19z m2303 7 c24
-13 24 -14 4 -15 -12 0 -27 7 -34 15 -16 19 -3 19 30 0z m-1710 -6 c0 -6 9 -8
23 -4 20 6 21 5 5 -8 -10 -8 -18 -24 -18 -36 0 -18 -5 -21 -30 -19 -33 2 -39
12 -14 22 10 4 14 12 10 22 -3 9 -4 20 0 25 7 12 24 11 24 -2z m-88 -21 c-11
-11 -32 -3 -32 12 0 4 9 6 21 3 13 -4 17 -9 11 -15z m318 -14 c0 -16 -16 -19
-25 -4 -8 13 4 32 16 25 5 -4 9 -13 9 -21z m-1390 6 c0 -5 -4 -10 -10 -10 -5
0 -10 5 -10 10 0 6 5 10 10 10 6 0 10 -4 10 -10z m1875 -10 c3 -5 -1 -10 -9
-10 -9 0 -16 5 -16 10 0 6 4 10 9 10 6 0 13 -4 16 -10z m255 0 c0 -5 -2 -10
-4 -10 -3 0 -8 5 -11 10 -3 6 -1 10 4 10 6 0 11 -4 11 -10z m-1990 -50 c0 -5
-5 -10 -11 -10 -5 0 -7 5 -4 10 3 6 8 10 11 10 2 0 4 -4 4 -10z m1020 -24 c0
-8 -7 -16 -15 -20 -17 -6 -18 -4 -9 18 8 20 24 21 24 2z m937 -32 c-1 -31 -2
-34 -10 -16 -5 12 -7 28 -4 36 10 26 15 18 14 -20z m43 20 c0 -8 -5 -12 -10
-9 -6 4 -8 11 -5 16 9 14 15 11 15 -7z m-1875 -4 c-3 -5 -10 -10 -16 -10 -5 0
-9 5 -9 10 0 6 7 10 16 10 8 0 12 -4 9 -10z m2157 -15 c-3 -17 1 -27 12 -31 9
-3 16 -10 16 -15 0 -18 -16 -8 -32 19 -13 22 -14 32 -6 40 16 16 16 16 10 -13z
m-2082 -25 c0 -5 -6 -10 -14 -10 -7 0 -28 -3 -45 -6 -19 -4 -31 -2 -31 4 0 6
17 13 38 15 20 2 40 4 45 5 4 1 7 -2 7 -8z m1810 -30 c0 -19 -11 -26 -23 -14
-8 8 3 34 14 34 5 0 9 -9 9 -20z m15 -53 c0 -17 -5 -23 -19 -22 -24 2 -34 25
-12 25 9 0 16 5 16 10 0 6 3 10 8 10 4 0 7 -10 7 -23z m235 2 c0 -5 -5 -7 -11
-4 -13 9 -3 -109 12 -137 7 -12 6 -18 -1 -18 -15 0 -32 48 -34 97 0 23 -4 45
-8 49 -15 14 -8 24 17 24 14 0 25 -5 25 -11z m50 -15 c0 -8 -4 -14 -8 -14 -4
0 -8 9 -8 19 0 11 4 17 8 15 4 -3 8 -12 8 -20z m53 -4 c4 -17 3 -19 -9 -9 -8
6 -14 18 -14 26 0 20 16 8 23 -17z m44 -52 c-3 -8 -6 -5 -6 6 -1 11 2 17 5 13
3 -3 4 -12 1 -19z m-117 -40 c0 -19 -2 -20 -10 -8 -13 19 -13 30 0 30 6 0 10
-10 10 -22z m-2715 -18 c3 -5 2 -10 -4 -10 -5 0 -13 5 -16 10 -3 6 -2 10 4 10
5 0 13 -4 16 -10z m3115 -7 c-8 -3 -24 -10 -35 -15 -20 -9 -20 -9 -1 6 11 9
27 16 35 15 14 0 14 -1 1 -6z m-3020 -23 c0 -5 -4 -10 -10 -10 -5 0 -10 5 -10
10 0 6 5 10 10 10 6 0 10 -4 10 -10z m1906 -62 l29 -31 -32 22 c-35 23 -50 41
-35 41 4 0 21 -14 38 -32z m-1236 -118 c0 -5 -4 -10 -10 -10 -5 0 -10 5 -10
10 0 6 5 10 10 10 6 0 10 -4 10 -10z m1650 -46 c0 -8 -5 -12 -10 -9 -6 4 -8
11 -5 16 9 14 15 11 15 -7z m-1572 -26 c-3 -7 -13 -15 -23 -16 -15 -4 -16 -2
-4 12 17 19 32 21 27 4z m-128 -49 c-28 -39 -34 -37 -12 5 9 19 20 32 25 29 4
-2 -2 -18 -13 -34z m1595 -8 c3 -5 1 -12 -5 -16 -5 -3 -10 1 -10 9 0 18 6 21
15 7z m-1180 -11 c3 -6 -1 -7 -9 -4 -18 7 -21 14 -7 14 6 0 13 -4 16 -10z
m2270 -40 c-3 -5 -11 -10 -16 -10 -6 0 -7 5 -4 10 3 6 11 10 16 10 6 0 7 -4 4
-10z m-2749 -95 c-9 -20 -20 -34 -24 -31 -5 3 0 25 12 49 25 50 34 36 12 -18z
m96 43 c-7 -7 -12 -8 -12 -2 0 14 12 26 19 19 2 -3 -1 -11 -7 -17z m2061 -143
c-3 -9 -8 -14 -10 -11 -3 3 -2 9 2 15 9 16 15 13 8 -4z m-2218 -33 c-10 -10
-16 -12 -13 -7 3 6 8 19 13 30 5 14 9 16 12 7 3 -8 -3 -21 -12 -30z m2120 -2
c3 -5 2 -10 -4 -10 -5 0 -13 5 -16 10 -3 6 -2 10 4 10 5 0 13 -4 16 -10z
m-1292 -210 c3 -11 1 -18 -4 -14 -5 3 -9 12 -9 20 0 20 7 17 13 -6z m-483 -40
c0 -5 -4 -10 -10 -10 -5 0 -10 5 -10 10 0 6 5 10 10 10 6 0 10 -4 10 -10z"/>
<path d="M3270 4850 c0 -5 5 -10 10 -10 6 0 10 5 10 10 0 6 -4 10 -10 10 -5 0
-10 -4 -10 -10z"/>
<path d="M3238 4564 c-1 -31 0 -58 5 -61 4 -2 7 -1 8 4 6 64 6 113 -1 113 -4
0 -10 -25 -12 -56z"/>
<path d="M3016 4561 c-4 -7 -5 -15 -2 -18 9 -9 19 4 14 18 -4 11 -6 11 -12 0z"/>
<path d="M3370 4520 c0 -5 7 -10 16 -10 8 0 12 5 9 10 -3 6 -10 10 -16 10 -5
0 -9 -4 -9 -10z"/>
<path d="M3460 4520 c0 -5 5 -10 11 -10 5 0 7 5 4 10 -3 6 -8 10 -11 10 -2 0
-4 -4 -4 -10z"/>
<path d="M3410 4510 c0 -5 5 -10 10 -10 6 0 10 5 10 10 0 6 -4 10 -10 10 -5 0
-10 -4 -10 -10z"/>
<path d="M3040 4458 c0 -34 5 -50 18 -57 15 -9 15 -12 2 -22 -13 -9 -13 -10 2
-5 11 3 19 -2 23 -15 l7 -21 14 21 c13 18 12 22 -11 45 -14 14 -25 33 -25 44
0 10 -7 27 -15 38 -13 18 -14 15 -15 -28z"/>
<path d="M3406 4448 c7 -22 6 -22 -21 -4 -18 12 -30 15 -37 8 -7 -7 -2 -14 13
-23 13 -6 27 -17 32 -23 5 -7 12 -5 22 8 20 26 19 56 -1 56 -11 0 -14 -6 -8
-22z"/>
<path d="M3572 4458 c5 -15 28 -23 28 -10 0 5 -7 13 -16 16 -10 4 -14 1 -12
-6z"/>
<path d="M2492 4429 c2 -7 10 -15 17 -17 8 -3 12 1 9 9 -2 7 -10 15 -17 17 -8
3 -12 -1 -9 -9z"/>
<path d="M2465 4410 c3 -5 8 -10 11 -10 2 0 4 5 4 10 0 6 -5 10 -11 10 -5 0
-7 -4 -4 -10z"/>
<path d="M3442 4408 c3 -7 15 -15 28 -16 21 -3 22 -2 11 12 -16 19 -44 21 -39
4z"/>
<path d="M3510 4401 c0 -10 -7 -24 -15 -31 -9 -7 -14 -19 -11 -26 3 -7 -6 -22
-20 -33 -20 -16 -23 -24 -16 -37 9 -15 12 -14 25 13 18 33 43 49 50 30 2 -7 8
-9 12 -5 4 4 1 18 -8 31 -14 22 -14 24 4 35 25 16 24 42 -1 42 -13 0 -20 -7
-20 -19z"/>
<path d="M3580 4405 c0 -9 5 -15 11 -13 6 2 11 8 11 13 0 5 -5 11 -11 13 -6 2
-11 -4 -11 -13z"/>
<path d="M2940 4396 c0 -9 8 -12 27 -8 25 5 25 6 8 13 -29 11 -35 10 -35 -5z"/>
<path d="M2790 4390 c0 -5 4 -10 9 -10 6 0 13 5 16 10 3 6 -1 10 -9 10 -9 0
-16 -4 -16 -10z"/>
<path d="M3170 4380 c0 -5 7 -10 16 -10 8 0 12 5 9 10 -3 6 -10 10 -16 10 -5
0 -9 -4 -9 -10z"/>
<path d="M2505 4371 c-10 -17 12 -21 25 -6 10 12 10 15 -3 15 -9 0 -18 -4 -22
-9z"/>
<path d="M3570 4360 c0 -5 5 -10 10 -10 6 0 10 5 10 10 0 6 -4 10 -10 10 -5 0
-10 -4 -10 -10z"/>
<path d="M2925 4352 c-37 -7 -37 -20 -1 -19 20 1 36 4 36 8 0 12 -13 16 -35
11z"/>
<path d="M2545 4340 c3 -5 13 -10 21 -10 8 0 14 5 14 10 0 6 -9 10 -21 10 -11
0 -17 -4 -14 -10z"/>
<path d="M2765 4341 c-6 -11 9 -23 19 -14 9 9 7 23 -3 23 -6 0 -12 -4 -16 -9z"/>
<path d="M2845 4341 c-6 -11 9 -23 19 -14 9 9 7 23 -3 23 -6 0 -12 -4 -16 -9z"/>
<path d="M3230 4320 c0 -5 5 -10 10 -10 6 0 10 5 10 10 0 6 -4 10 -10 10 -5 0
-10 -4 -10 -10z"/>
<path d="M2618 4313 c7 -3 16 -2 19 1 4 3 -2 6 -13 5 -11 0 -14 -3 -6 -6z"/>
<path d="M2962 4308 c6 -18 28 -21 28 -4 0 9 -7 16 -16 16 -9 0 -14 -5 -12
-12z"/>
<path d="M2783 4295 c-3 -9 -3 -18 0 -21 9 -9 27 6 27 22 0 19 -19 18 -27 -1z"/>
<path d="M2853 4290 c-1 -11 4 -20 11 -20 21 0 40 -27 24 -32 -10 -4 -10 -8 1
-21 10 -12 17 -14 26 -7 9 8 14 6 19 -5 8 -21 26 -19 26 3 0 9 -10 22 -22 27
-22 10 -33 41 -17 51 14 8 11 24 -6 24 -8 0 -15 -6 -15 -14 0 -24 -21 -30 -27
-7 -7 27 -18 27 -20 1z"/>
<path d="M3605 4302 c-12 -8 -14 -52 -2 -52 4 0 11 0 16 0 5 0 8 11 7 25 -3
30 -8 36 -21 27z"/>
<path d="M2936 4281 c-3 -5 1 -14 9 -21 12 -10 15 -10 15 3 0 19 -16 31 -24
18z"/>
<path d="M2727 4269 c-20 -12 -23 -29 -3 -29 17 0 40 26 29 33 -5 3 -16 1 -26
-4z"/>
<path d="M3680 4270 c0 -5 5 -10 10 -10 6 0 10 5 10 10 0 6 -4 10 -10 10 -5 0
-10 -4 -10 -10z"/>
<path d="M2794 4256 c-4 -10 -2 -22 4 -28 8 -8 13 -7 18 6 4 10 2 22 -4 28 -8
8 -13 7 -18 -6z"/>
<path d="M2836 4251 c-4 -7 -5 -15 -2 -18 9 -9 19 4 14 18 -4 11 -6 11 -12 0z"/>
<path d="M2673 4233 c9 -9 19 -14 23 -11 10 10 -6 28 -24 28 -15 0 -15 -1 1
-17z"/>
<path d="M3005 4240 c-3 -5 -1 -10 4 -10 6 0 11 5 11 10 0 6 -2 10 -4 10 -3 0
-8 -4 -11 -10z"/>
<path d="M2632 4229 c2 -7 10 -15 17 -17 8 -3 12 1 9 9 -2 7 -10 15 -17 17 -8
3 -12 -1 -9 -9z"/>
<path d="M2735 4219 c-4 -6 -4 -13 -1 -16 8 -8 36 5 36 17 0 13 -27 13 -35 -1z"/>
<path d="M2655 4181 c-7 -12 12 -24 25 -16 11 7 4 25 -10 25 -5 0 -11 -4 -15
-9z"/>
<path d="M2753 4174 c-3 -8 -1 -20 6 -27 14 -14 47 15 37 32 -10 16 -36 13
-43 -5z"/>
<path d="M3129 4138 c0 -2 -2 -19 -4 -38 l-4 -35 15 28 c8 15 19 27 24 27 6 0
10 5 10 10 0 8 -39 15 -41 8z"/>
<path d="M3052 4082 c13 -15 56 -12 48 3 -3 6 -17 10 -32 10 -21 1 -25 -2 -16
-13z"/>
<path d="M4276 3611 c-4 -7 -5 -15 -2 -18 9 -9 19 4 14 18 -4 11 -6 11 -12 0z"/>
<path d="M3410 3857 c0 -7 5 -18 12 -25 7 -7 18 -12 25 -12 19 0 16 37 -3 44
-24 9 -34 7 -34 -7z"/>
<path d="M3470 3790 c0 -5 5 -10 11 -10 5 0 7 5 4 10 -3 6 -8 10 -11 10 -2 0
-4 -4 -4 -10z"/>
<path d="M3380 3775 c0 -8 5 -15 10 -15 6 0 10 7 10 15 0 8 -4 15 -10 15 -5 0
-10 -7 -10 -15z"/>
<path d="M2350 3286 c0 -15 46 -49 61 -44 11 4 -37 58 -51 58 -6 0 -10 -6 -10
-14z"/>
<path d="M1490 3570 c0 -5 5 -10 11 -10 5 0 7 5 4 10 -3 6 -8 10 -11 10 -2 0
-4 -4 -4 -10z"/>
<path d="M1645 3570 c3 -5 8 -10 11 -10 2 0 4 5 4 10 0 6 -5 10 -11 10 -5 0
-7 -4 -4 -10z"/>
<path d="M1620 3550 c0 -5 5 -10 10 -10 6 0 10 5 10 10 0 6 -4 10 -10 10 -5 0
-10 -4 -10 -10z"/>
<path d="M1550 3530 c0 -5 5 -10 10 -10 6 0 10 5 10 10 0 6 -4 10 -10 10 -5 0
-10 -4 -10 -10z"/>
<path d="M1550 3494 c1 -27 62 -55 75 -34 3 5 0 11 -7 12 -7 0 -18 2 -24 2 -6
1 -19 7 -28 15 -9 7 -16 10 -16 5z"/>
<path d="M1564 3436 c-4 -10 6 -27 24 -46 37 -36 46 -38 38 -6 -4 16 -1 26 9
30 19 7 19 26 0 26 -8 0 -15 -7 -15 -15 0 -8 -7 -15 -15 -15 -8 0 -15 6 -15
14 0 21 -19 30 -26 12z"/>
<path d="M1659 3371 l-24 -19 38 -37 c26 -26 43 -34 57 -30 20 6 17 36 -4 34
-23 -3 -35 1 -51 17 -14 15 -14 18 6 35 29 25 8 25 -22 0z"/>
<path d="M1750 3320 c0 -5 7 -10 16 -10 8 0 12 5 9 10 -3 6 -10 10 -16 10 -5
0 -9 -4 -9 -10z"/>
<path d="M1635 3300 c3 -5 10 -10 16 -10 5 0 9 5 9 10 0 6 -7 10 -16 10 -8 0
-12 -4 -9 -10z"/>
<path d="M1770 3290 c0 -5 5 -10 11 -10 5 0 7 5 4 10 -3 6 -8 10 -11 10 -2 0
-4 -4 -4 -10z"/>
<path d="M1888 3283 c7 -3 16 -2 19 1 4 3 -2 6 -13 5 -11 0 -14 -3 -6 -6z"/>
<path d="M1683 3263 c9 -9 19 -14 23 -11 10 10 -6 28 -24 28 -15 0 -15 -1 1
-17z"/>
<path d="M1820 3255 c7 -8 19 -15 27 -15 13 0 13 3 3 15 -7 8 -19 15 -27 15
-13 0 -13 -3 -3 -15z"/>
<path d="M1773 3246 c3 -8 1 -16 -5 -18 -15 -5 -1 -28 17 -28 9 0 12 6 9 15
-4 8 -1 15 6 15 10 0 10 3 0 15 -16 19 -34 20 -27 1z"/>
<path d="M1875 3239 c-5 -14 -2 -25 6 -30 22 -14 26 -11 26 21 0 35 -22 41
-32 9z"/>
<path d="M1705 3210 c-3 -5 1 -10 9 -10 9 0 16 5 16 10 0 6 -4 10 -9 10 -6 0
-13 -4 -16 -10z"/>
<path d="M1920 3189 c0 -5 9 -13 20 -19 14 -7 20 -7 20 0 0 5 9 10 21 10 11 0
17 4 14 10 -7 11 -75 10 -75 -1z"/>
<path d="M1546 3173 c-6 -14 -5 -15 5 -6 7 7 10 15 7 18 -3 3 -9 -2 -12 -12z"/>
<path d="M1735 3179 c-10 -15 14 -49 30 -43 9 4 15 0 15 -10 0 -10 9 -16 24
-16 26 0 39 -20 30 -45 -4 -9 0 -15 10 -15 9 0 16 -5 16 -10 0 -13 46 -32 85
-36 17 -1 43 -5 59 -9 21 -6 27 -5 22 4 -5 7 0 11 13 11 20 0 36 -16 36 -35 0
-5 14 -11 30 -13 29 -2 29 -2 10 13 -17 13 -18 17 -5 25 12 7 11 10 -5 15 -11
4 -31 12 -45 18 -14 6 -35 12 -48 13 -20 2 -22 1 -11 -12 17 -20 6 -27 -30
-19 -27 6 -29 9 -18 25 9 15 9 22 0 31 -16 16 -43 4 -43 -21 0 -23 -8 -25 -32
-6 -22 16 -23 32 -3 40 20 7 19 25 -2 33 -10 4 -34 19 -53 34 -38 29 -77 42
-85 28z"/>
<path d="M1685 3170 c3 -5 8 -10 11 -10 2 0 4 5 4 10 0 6 -5 10 -11 10 -5 0
-7 -4 -4 -10z"/>
<path d="M1860 3166 c0 -9 5 -16 10 -16 6 0 10 4 10 9 0 6 -4 13 -10 16 -5 3
-10 -1 -10 -9z"/>
<path d="M2040 3166 c0 -19 27 -28 34 -11 2 7 -2 16 -10 19 -22 8 -24 8 -24
-8z"/>
<path d="M1912 3159 c2 -7 10 -15 17 -17 8 -3 12 1 9 9 -2 7 -10 15 -17 17 -8
3 -12 -1 -9 -9z"/>
<path d="M1470 3135 c0 -8 5 -15 10 -15 6 0 10 7 10 15 0 8 -4 15 -10 15 -5 0
-10 -7 -10 -15z"/>
<path d="M1982 3138 c3 -7 15 -15 27 -16 16 -3 22 1 19 10 -3 7 -15 15 -27 16
-16 3 -22 -1 -19 -10z"/>
<path d="M1620 3130 c0 -5 5 -10 10 -10 6 0 10 5 10 10 0 6 -4 10 -10 10 -5 0
-10 -4 -10 -10z"/>
<path d="M1547 3124 c-14 -14 -6 -24 19 -24 16 0 24 5 22 13 -5 14 -31 21 -41
11z"/>
<path d="M1910 3115 c0 -9 6 -12 15 -9 8 4 12 10 9 15 -8 14 -24 10 -24 -6z"/>
<path d="M1405 3110 c-3 -5 -1 -10 4 -10 6 0 11 5 11 10 0 6 -2 10 -4 10 -3 0
-8 -4 -11 -10z"/>
<path d="M1693 3113 c9 -2 17 -9 17 -14 0 -5 7 -9 15 -9 23 0 18 17 -7 24 -13
3 -27 5 -33 5 -5 -1 -2 -3 8 -6z"/>
<path d="M1440 3095 c0 -17 9 -19 28 -6 11 7 10 10 -3 15 -23 9 -25 8 -25 -9z"/>
<path d="M1627 3104 c-13 -13 -7 -24 14 -24 11 0 19 5 17 12 -5 14 -22 21 -31
12z"/>
<path d="M1502 3084 c9 -10 24 -14 33 -10 23 9 9 26 -23 26 -24 0 -25 -1 -10
-16z"/>
<path d="M1977 3093 c-12 -11 -8 -23 8 -23 8 0 15 7 15 15 0 16 -12 20 -23 8z"/>
<path d="M2032 3089 c2 -6 8 -10 13 -10 5 0 11 4 13 10 2 6 -4 11 -13 11 -9 0
-15 -5 -13 -11z"/>
<path d="M1587 3083 c-12 -11 -8 -23 8 -23 8 0 15 7 15 15 0 16 -12 20 -23 8z"/>
<path d="M1750 3064 c0 -15 5 -24 12 -22 16 6 18 48 1 48 -7 0 -13 -11 -13
-26z"/>
<path d="M1670 3059 c0 -5 5 -7 10 -4 6 3 10 8 10 11 0 2 -4 4 -10 4 -5 0 -10
-5 -10 -11z"/>
<path d="M2072 3053 c2 -10 10 -17 16 -15 7 1 21 -2 31 -8 14 -7 20 -6 25 6 6
15 1 18 -47 29 -24 5 -28 3 -25 -12z"/>
<path d="M1710 3040 c0 -5 5 -10 10 -10 6 0 10 5 10 10 0 6 -4 10 -10 10 -5 0
-10 -4 -10 -10z"/>
<path d="M1220 3024 c0 -8 5 -12 10 -9 6 4 8 11 5 16 -9 14 -15 11 -15 -7z"/>
<path d="M1277 3008 c-4 -12 -4 -24 -1 -27 6 -7 24 20 24 37 0 21 -17 13 -23
-10z"/>
<path d="M1780 3021 c0 -5 -10 -11 -22 -15 -19 -5 -21 -8 -8 -16 21 -14 30
-12 30 5 0 8 7 15 15 15 8 0 15 5 15 10 0 6 -7 10 -15 10 -8 0 -15 -4 -15 -9z"/>
<path d="M1822 3018 c5 -15 28 -18 29 -3 0 6 -7 12 -17 13 -10 3 -15 -1 -12
-10z"/>
<path d="M1815 2990 c-3 -5 1 -10 10 -10 9 0 13 5 10 10 -3 6 -8 10 -10 10 -2
0 -7 -4 -10 -10z"/>
<path d="M1860 2989 c-13 -8 -13 -10 0 -19 19 -12 27 -12 34 -1 9 15 -18 31
-34 20z"/>
<path d="M1700 2980 c0 -5 7 -10 15 -10 8 0 15 5 15 10 0 6 -7 10 -15 10 -8 0
-15 -4 -15 -10z"/>
<path d="M1936 2981 c-8 -12 21 -34 34 -26 8 5 8 11 -1 21 -13 16 -25 18 -33
5z"/>
<path d="M1302 2958 c6 -18 28 -21 28 -4 0 9 -7 16 -16 16 -9 0 -14 -5 -12
-12z"/>
<path d="M2180 2960 c-23 -14 2 -32 34 -24 25 6 25 7 9 20 -22 16 -24 16 -43
4z"/>
<path d="M2020 2950 c0 -5 7 -10 15 -10 8 0 15 5 15 10 0 6 -7 10 -15 10 -8 0
-15 -4 -15 -10z"/>
<path d="M1916 2941 c-8 -12 21 -34 34 -26 8 5 8 11 -1 21 -13 16 -25 18 -33
5z"/>
<path d="M2107 2934 c-9 -10 2 -24 19 -24 8 0 14 7 14 15 0 15 -21 21 -33 9z"/>
<path d="M1986 2915 c4 -8 1 -21 -5 -29 -15 -18 11 -29 41 -16 19 7 20 9 4 9
-14 1 -16 4 -7 14 8 10 7 17 -1 25 -17 17 -38 15 -32 -3z"/>
<path d="M2045 2910 c-3 -6 1 -13 10 -16 19 -8 30 0 20 15 -8 14 -22 14 -30 1z"/>
<path d="M1475 2869 c5 -25 13 -35 21 -26 8 8 -5 47 -16 47 -5 0 -7 -10 -5
-21z"/>
<path d="M2066 2872 c-10 -16 11 -34 33 -27 18 5 20 9 10 21 -13 15 -35 19
-43 6z"/>
<path d="M1965 2840 c3 -5 11 -10 16 -10 6 0 7 5 4 10 -3 6 -11 10 -16 10 -6
0 -7 -4 -4 -10z"/>
<path d="M1505 2830 c-4 -6 -3 -14 0 -20 9 -15 35 -12 35 4 0 17 -27 29 -35
16z"/>
<path d="M2116 2821 c-9 -15 23 -36 36 -23 5 5 7 15 4 21 -9 13 -33 14 -40 2z"/>
<path d="M1462 2808 c6 -18 28 -21 28 -4 0 9 -7 16 -16 16 -9 0 -14 -5 -12
-12z"/>
<path d="M1428 2764 c-11 -10 3 -34 19 -34 8 0 13 7 11 17 -3 18 -20 27 -30
17z"/>
<path d="M1430 2700 c0 -5 5 -10 11 -10 5 0 7 5 4 10 -3 6 -8 10 -11 10 -2 0
-4 -4 -4 -10z"/>
<path d="M1505 2680 c3 -5 8 -10 11 -10 2 0 4 5 4 10 0 6 -5 10 -11 10 -5 0
-7 -4 -4 -10z"/>
<path d="M4610 3585 c-10 -12 -10 -21 -2 -40 16 -34 28 -31 36 6 9 47 -9 65
-34 34z"/>
<path d="M4660 3532 c0 -11 7 -23 16 -26 11 -4 15 0 12 16 -4 28 -28 36 -28
10z"/>
<path d="M4617 3480 c-4 -15 0 -20 15 -20 13 0 18 6 16 17 -5 24 -25 27 -31 3z"/>
<path d="M4671 3450 c6 -16 15 -27 20 -24 13 8 11 23 -5 40 -22 21 -26 17 -15
-16z"/>
<path d="M4620 3432 c0 -5 7 -16 16 -23 14 -12 16 -11 13 5 -4 20 -29 35 -29
18z"/>
<path d="M4325 3410 c-3 -5 1 -10 10 -10 9 0 13 5 10 10 -3 6 -8 10 -10 10 -2
0 -7 -4 -10 -10z"/>
<path d="M4560 3231 c0 -5 5 -13 10 -16 6 -3 10 -2 10 4 0 5 -4 13 -10 16 -5
3 -10 2 -10 -4z"/>
<path d="M4500 3194 c-9 -10 -9 -14 -1 -14 6 0 11 -7 11 -15 0 -16 25 -21 34
-6 17 27 -25 59 -44 35z"/>
<path d="M4367 3170 c-23 -27 -22 -30 14 -30 26 0 30 3 27 22 -4 29 -20 32
-41 8z"/>
<path d="M4590 3165 c0 -3 7 -14 16 -23 15 -14 16 -14 13 3 -4 17 -29 35 -29
20z"/>
<path d="M4487 3073 c-13 -12 -7 -18 36 -37 39 -17 43 -22 39 -47 -2 -16 -9
-29 -14 -29 -5 0 -6 -4 -3 -10 12 -20 33 -10 38 19 7 35 -12 81 -34 81 -9 0
-19 7 -23 15 -6 15 -28 20 -39 8z"/>
<path d="M4596 3051 c-4 -7 -5 -15 -2 -18 9 -9 19 4 14 18 -4 11 -6 11 -12 0z"/>
<path d="M4433 3009 c0 -31 1 -31 44 -26 27 3 43 1 43 -6 0 -7 4 -7 12 1 19
19 -10 45 -43 38 -22 -4 -27 -2 -22 9 3 10 -1 15 -14 15 -15 0 -20 -7 -20 -31z"/>
<path d="M4630 2990 c0 -11 5 -20 10 -20 6 0 10 9 10 20 0 11 -4 20 -10 20 -5
0 -10 -9 -10 -20z"/>
<path d="M4275 2961 c-3 -5 -1 -12 5 -16 12 -7 30 2 30 16 0 12 -27 12 -35 0z"/>
<path d="M4385 2961 c-3 -2 -5 -8 -5 -12 0 -11 73 -4 77 8 3 9 -64 13 -72 4z"/>
<path d="M4490 2955 c0 -10 7 -15 18 -13 21 4 19 22 -2 26 -10 2 -16 -3 -16
-13z"/>
<path d="M4671 2934 c0 -11 3 -14 6 -6 3 7 2 16 -1 19 -3 4 -6 -2 -5 -13z"/>
<path d="M4405 2931 c-3 -5 -1 -12 5 -16 6 -4 8 -11 5 -16 -4 -5 0 -9 8 -9 9
0 15 10 15 25 0 24 -21 34 -33 16z"/>
<path d="M4465 2929 c-10 -15 1 -23 20 -15 9 3 13 10 10 16 -8 13 -22 13 -30
-1z"/>
<path d="M4517 2924 c-9 -10 2 -24 19 -24 8 0 14 7 14 15 0 15 -21 21 -33 9z"/>
<path d="M4585 2921 c-3 -5 -1 -12 5 -16 5 -3 10 1 10 9 0 18 -6 21 -15 7z"/>
<path d="M4480 2889 c0 -5 5 -7 10 -4 6 3 10 8 10 11 0 2 -4 4 -10 4 -5 0 -10
-5 -10 -11z"/>
<path d="M4640 2889 c0 -5 5 -7 10 -4 6 3 10 8 10 11 0 2 -4 4 -10 4 -5 0 -10
-5 -10 -11z"/>
<path d="M4690 2892 c0 -8 58 -32 78 -32 7 0 12 5 12 10 0 6 -11 10 -24 10
-14 0 -28 5 -31 10 -7 12 -35 13 -35 2z"/>
<path d="M4383 2883 c-16 -6 -17 -56 -1 -51 14 5 30 46 20 51 -4 3 -13 2 -19
0z"/>
<path d="M4550 2875 c-8 -9 -8 -15 -2 -15 12 0 26 19 19 26 -2 2 -10 -2 -17
-11z"/>
<path d="M4826 2845 c4 -8 10 -12 15 -9 11 6 2 24 -11 24 -5 0 -7 -7 -4 -15z"/>
<path d="M4145 2841 c-7 -12 12 -24 25 -16 11 7 4 25 -10 25 -5 0 -11 -4 -15
-9z"/>
<path d="M4194 2816 c-2 -27 33 -53 49 -37 7 7 5 12 -6 17 -38 14 -13 23 51
18 62 -4 65 -3 46 10 -14 10 -43 15 -80 15 -54 -1 -59 -3 -60 -23z"/>
<path d="M4430 2785 c0 -8 5 -15 10 -15 6 0 10 7 10 15 0 8 -4 15 -10 15 -5 0
-10 -7 -10 -15z"/>
<path d="M4505 2761 c-3 -5 -1 -12 5 -16 5 -3 10 1 10 9 0 18 -6 21 -15 7z"/>
<path d="M4565 2730 c3 -5 8 -10 11 -10 2 0 4 5 4 10 0 6 -5 10 -11 10 -5 0
-7 -4 -4 -10z"/>
<path d="M3840 3320 c-11 -7 -12 -12 -3 -21 13 -13 33 -4 33 17 0 16 -9 18
-30 4z"/>
<path d="M3100 3120 c0 -5 5 -10 11 -10 5 0 7 5 4 10 -3 6 -8 10 -11 10 -2 0
-4 -4 -4 -10z"/>
<path d="M2885 2920 c-3 -5 -2 -10 4 -10 5 0 13 5 16 10 3 6 2 10 -4 10 -5 0
-13 -4 -16 -10z"/>
<path d="M2978 2916 c-10 -7 -15 -16 -12 -19 7 -7 44 14 44 25 0 12 -13 9 -32
-6z"/>
<path d="M2806 2912 c-3 -6 -1 -14 5 -17 15 -10 25 3 12 16 -7 7 -13 7 -17 1z"/>
<path d="M2920 2880 c0 -5 5 -10 10 -10 6 0 10 5 10 10 0 6 -4 10 -10 10 -5 0
-10 -4 -10 -10z"/>
<path d="M3000 2879 c0 -5 5 -7 10 -4 6 3 10 8 10 11 0 2 -4 4 -10 4 -5 0 -10
-5 -10 -11z"/>
<path d="M2950 2860 c0 -5 5 -10 11 -10 5 0 7 5 4 10 -3 6 -8 10 -11 10 -2 0
-4 -4 -4 -10z"/>
<path d="M4067 3022 c-7 -9 28 -52 42 -52 6 0 11 5 11 10 0 6 -6 10 -14 10 -9
0 -12 7 -9 20 4 14 0 20 -10 20 -9 0 -18 -3 -20 -8z"/>
<path d="M4035 2989 c-10 -15 1 -23 20 -15 9 3 13 10 10 16 -8 13 -22 13 -30
-1z"/>
<path d="M4305 2640 c-3 -5 -1 -10 4 -10 6 0 11 5 11 10 0 6 -2 10 -4 10 -3 0
-8 -4 -11 -10z"/>
<path d="M2170 2500 c0 -5 5 -10 10 -10 6 0 10 5 10 10 0 6 -4 10 -10 10 -5 0
-10 -4 -10 -10z"/>
<path d="M2042 2464 c3 -17 21 -21 26 -6 1 5 -4 12 -13 16 -11 4 -15 1 -13
-10z"/>
<path d="M3960 2475 c0 -8 4 -15 9 -15 5 0 13 -10 16 -21 6 -17 9 -19 16 -8
13 20 11 29 -6 29 -8 0 -15 7 -15 15 0 8 -4 15 -10 15 -5 0 -10 -7 -10 -15z"/>
<path d="M3920 1980 c-10 -18 -7 -22 24 -35 42 -18 62 -19 71 -4 11 16 -5 25
-16 9 -8 -12 -9 -11 -7 5 2 14 -3 21 -19 23 -13 2 -23 8 -23 13 0 16 -19 9
-30 -11z"/>
<path d="M3811 1946 c-10 -12 -7 -18 16 -33 37 -23 43 -34 37 -59 -4 -16 0
-24 16 -29 13 -4 23 -18 27 -36 6 -31 14 -35 44 -19 29 16 23 36 -22 77 -22
21 -52 55 -65 76 -26 40 -35 44 -53 23z"/>
<path d="M4040 1951 c0 -15 28 -33 40 -26 8 5 8 11 -1 21 -13 15 -39 19 -39 5z"/>
<path d="M3920 1886 c0 -8 16 -23 35 -32 19 -9 35 -23 35 -30 0 -8 7 -14 15
-14 8 0 15 -9 15 -20 0 -15 7 -20 25 -20 41 0 29 31 -31 80 -58 48 -94 62 -94
36z"/>
<path d="M4107 1820 c6 -24 26 -21 31 3 2 11 -3 17 -16 17 -15 0 -19 -5 -15
-20z"/>
<path d="M4170 1804 c0 -8 5 -12 10 -9 6 3 10 10 10 16 0 5 -4 9 -10 9 -5 0
-10 -7 -10 -16z"/>
<path d="M4126 1774 c-8 -22 1 -31 16 -16 9 9 9 15 1 23 -7 7 -12 5 -17 -7z"/>
<path d="M3949 1742 c-14 -12 -18 -21 -11 -26 6 -3 23 5 39 19 21 18 24 24 12
25 -9 0 -27 -8 -40 -18z"/>
<path d="M4077 1746 c-6 -16 2 -28 14 -20 12 7 11 34 0 34 -5 0 -11 -6 -14
-14z"/>
<path d="M3970 1605 c-10 -12 -10 -15 3 -15 8 0 17 7 21 15 3 8 2 15 -3 15 -5
0 -14 -7 -21 -15z"/>
<path d="M3810 1570 c0 -14 26 -23 41 -15 8 6 7 10 -2 16 -19 12 -39 11 -39
-1z"/>
<path d="M3880 1551 c0 -14 18 -23 31 -15 8 4 7 9 -2 15 -18 11 -29 11 -29 0z"/>
<path d="M3940 1529 c0 -5 5 -7 10 -4 6 3 10 8 10 11 0 2 -4 4 -10 4 -5 0 -10
-5 -10 -11z"/>
<path d="M3790 1510 c0 -5 5 -10 11 -10 5 0 7 5 4 10 -3 6 -8 10 -11 10 -2 0
-4 -4 -4 -10z"/>
<path d="M3910 1502 c0 -12 19 -26 26 -19 2 2 -2 10 -11 17 -9 8 -15 8 -15 2z"/>
<path d="M3863 1493 c-15 -5 -18 -33 -4 -33 5 0 11 9 14 20 3 11 4 20 4 19 -1
0 -8 -3 -14 -6z"/>
<path d="M3800 1470 c0 -5 5 -10 10 -10 6 0 10 5 10 10 0 6 -4 10 -10 10 -5 0
-10 -4 -10 -10z"/>
<path d="M2000 2136 c0 -14 5 -26 10 -26 6 0 10 9 10 19 0 11 -4 23 -10 26 -6
4 -10 -5 -10 -19z"/>
<path d="M1911 2124 c0 -11 3 -14 6 -6 3 7 2 16 -1 19 -3 4 -6 -2 -5 -13z"/>
<path d="M1934 2085 c-8 -21 6 -41 17 -24 12 19 11 39 -1 39 -6 0 -13 -7 -16
-15z"/>
<path d="M1842 1938 c-6 -18 -8 -36 -3 -41 4 -4 11 9 14 29 8 48 4 52 -11 12z"/>
<path d="M2252 1901 c-9 -6 -9 -11 2 -27 14 -18 15 -18 22 -1 8 22 -6 39 -24
28z"/>
<path d="M2120 1890 c0 -5 -7 -10 -15 -10 -8 0 -15 -9 -15 -20 0 -23 4 -24 31
-10 20 11 27 50 9 50 -5 0 -10 -4 -10 -10z"/>
<path d="M2160 1880 c0 -5 7 -10 16 -10 8 0 12 5 9 10 -3 6 -10 10 -16 10 -5
0 -9 -4 -9 -10z"/>
<path d="M2630 1857 c0 -16 27 -54 33 -47 3 3 7 16 9 29 2 18 -2 25 -19 27
-14 2 -23 -1 -23 -9z"/>
<path d="M1860 1821 c0 -19 26 -48 36 -39 7 8 -14 58 -26 58 -5 0 -10 -8 -10
-19z"/>
<path d="M2320 1822 c0 -11 8 -22 19 -25 16 -4 18 -1 12 16 -10 28 -31 34 -31
9z"/>
<path d="M2280 1821 c0 -6 5 -13 10 -16 6 -3 10 1 10 9 0 9 -4 16 -10 16 -5 0
-10 -4 -10 -9z"/>
<path d="M2564 1818 c-3 -5 2 -11 10 -14 8 -3 18 -13 21 -22 6 -21 43 -38 73
-34 15 2 22 10 22 26 0 21 -4 23 -44 20 -39 -3 -43 -1 -39 16 4 15 0 19 -17
17 -12 -1 -24 -5 -26 -9z"/>
<path d="M2030 1797 c0 -19 16 -31 24 -18 3 5 -1 14 -9 21 -12 10 -15 10 -15
-3z"/>
<path d="M1950 1756 c0 -22 29 -41 42 -28 8 8 8 15 -2 27 -16 19 -40 20 -40 1z"/>
<path d="M2389 1748 c-1 -2 -3 -14 -4 -28 -1 -14 -6 -33 -10 -43 -6 -13 -4
-16 9 -11 10 4 15 13 12 21 -3 7 1 16 9 19 20 8 19 44 0 44 -8 0 -16 -1 -16
-2z"/>
<path d="M2597 1714 c-3 -3 -3 -13 0 -21 5 -12 7 -12 14 -1 15 23 4 40 -14 22z"/>
<path d="M2630 1710 c0 -5 6 -10 14 -10 8 0 18 5 21 10 3 6 -3 10 -14 10 -12
0 -21 -4 -21 -10z"/>
<path d="M2275 1670 c-20 -22 -15 -36 10 -27 8 4 15 16 15 27 0 25 -2 25 -25
0z"/>
<path d="M2564 1665 c-4 -9 -4 -19 0 -22 11 -12 46 -13 46 -2 0 5 -4 7 -10 4
-5 -3 -10 1 -10 9 0 22 -19 30 -26 11z"/>
<path d="M2635 1670 c-3 -5 1 -10 9 -10 9 0 16 5 16 10 0 6 -4 10 -9 10 -6 0
-13 -4 -16 -10z"/>
<path d="M2215 1640 c3 -5 8 -10 11 -10 2 0 4 5 4 10 0 6 -5 10 -11 10 -5 0
-7 -4 -4 -10z"/>
<path d="M2355 1640 c-7 -11 25 -51 37 -44 4 3 8 14 8 25 0 11 -4 17 -10 14
-5 -3 -10 -1 -10 4 0 14 -17 14 -25 1z"/>
<path d="M2476 1633 c-16 -17 -5 -35 19 -31 14 3 28 1 31 -3 9 -15 34 -10 34
7 0 9 -7 14 -17 13 -10 -2 -28 2 -39 9 -12 6 -24 8 -28 5z"/>
<path d="M2418 1623 c7 -3 16 -2 19 1 4 3 -2 6 -13 5 -11 0 -14 -3 -6 -6z"/>
<path d="M2308 1608 c9 -9 15 -9 24 0 9 9 7 12 -12 12 -19 0 -21 -3 -12 -12z"/>
<path d="M2335 1571 c-10 -17 15 -45 29 -31 7 7 5 15 -6 26 -11 11 -18 13 -23
5z"/>
<path d="M2406 1571 c-4 -7 -5 -15 -2 -18 9 -9 19 4 14 18 -4 11 -6 11 -12 0z"/>
<path d="M2275 1550 c3 -5 10 -10 16 -10 5 0 9 5 9 10 0 6 -7 10 -16 10 -8 0
-12 -4 -9 -10z"/>
<path d="M2472 1548 c5 -15 28 -18 29 -3 0 6 -7 12 -17 13 -10 3 -15 -1 -12
-10z"/>
<path d="M2215 1520 c3 -5 11 -10 16 -10 6 0 7 5 4 10 -3 6 -11 10 -16 10 -6
0 -7 -4 -4 -10z"/>
<path d="M2150 1503 c0 -11 7 -23 15 -27 19 -7 19 3 0 28 -15 19 -15 19 -15
-1z"/>
<path d="M2310 1490 c0 -5 5 -10 11 -10 5 0 7 5 4 10 -3 6 -8 10 -11 10 -2 0
-4 -4 -4 -10z"/>
<path d="M2415 1490 c-3 -5 -1 -10 4 -10 6 0 11 5 11 10 0 6 -2 10 -4 10 -3 0
-8 -4 -11 -10z"/>
<path d="M2366 1481 c-4 -5 -2 -12 3 -15 5 -4 12 -2 15 3 4 5 2 12 -3 15 -5 4
-12 2 -15 -3z"/>
<path d="M2190 1439 c0 -5 5 -7 10 -4 6 3 10 8 10 11 0 2 -4 4 -10 4 -5 0 -10
-5 -10 -11z"/>
<path d="M2355 1421 c-6 -11 9 -23 19 -14 9 9 7 23 -3 23 -6 0 -12 -4 -16 -9z"/>
<path d="M2161 1400 c-16 -9 -6 -30 15 -30 15 0 20 25 6 34 -4 2 -14 1 -21 -4z"/>
<path d="M3370 2137 c0 -8 7 -21 16 -28 14 -11 15 -10 12 11 -3 26 -28 41 -28
17z"/>
<path d="M3491 2141 c-10 -7 -10 -10 -1 -16 6 -4 16 -3 22 3 13 13 -4 23 -21
13z"/>
<path d="M3470 2100 c0 -5 5 -10 10 -10 6 0 10 5 10 10 0 6 -4 10 -10 10 -5 0
-10 -4 -10 -10z"/>
<path d="M3427 2079 c-10 -11 -15 -24 -12 -29 9 -15 25 -12 25 4 0 8 6 16 13
19 8 3 9 8 2 16 -8 8 -16 5 -28 -10z"/>
<path d="M3507 2084 c-4 -4 -4 -10 -1 -15 6 -10 34 0 34 12 0 10 -24 12 -33 3z"/>
<path d="M3480 2040 c0 -5 7 -10 15 -10 8 0 15 5 15 10 0 6 -7 10 -15 10 -8 0
-15 -4 -15 -10z"/>
<path d="M3520 2015 c0 -10 7 -15 18 -13 21 4 19 22 -2 26 -10 2 -16 -3 -16
-13z"/>
<path d="M3422 2003 c4 -20 18 -26 37 -14 18 12 5 31 -20 31 -14 0 -19 -6 -17
-17z"/>
<path d="M3473 1973 c-16 -6 -5 -33 13 -33 8 0 14 6 14 14 0 18 -11 25 -27 19z"/>
<path d="M3567 1644 c-4 -4 -7 -14 -7 -23 0 -11 3 -12 11 -4 6 6 10 16 7 23
-2 6 -7 8 -11 4z"/>
<path d="M3350 1850 c0 -5 5 -10 11 -10 5 0 7 5 4 10 -3 6 -8 10 -11 10 -2 0
-4 -4 -4 -10z"/>
</g>
</svg>
